<svg xmlns="http://www.w3.org/2000/svg" xmlns:xlink="http://www.w3.org/1999/xlink" width="150" zoomAndPan="magnify" viewBox="0 0 112.5 37.5" height="50" preserveAspectRatio="xMidYMid meet" xmlns:v="https://vecta.io/nano"><g fill="#9d3be1"><path d="M15.312 25.886l3.273-15.793c0-1.52-1.309-1.52-3.32-1.52H10.89a.6.6 0 0 0-.562.469L6.351 27.757c0 .258.07.469.371.469h4.375c2.34 0 3.723 0 4.215-2.34zm-1.805-14.293h1.125L11.73 25.206h-1.121zm8.519-3.019a.6.6 0 0 0-.562.469l-4 18.832c0 .211.188.352.395.352h2.785c.258 0 .492-.211.563-.469l3.977-18.809c0-.211-.141-.375-.375-.375zm0 0"/><use xlink:href="#B"/><path d="M37.7 10.21l-3.531 16.895c0 1.121.98 1.121 1.355 1.121h6.246c.258 0 .492-.211.563-.469l.422-2.082v-.094c0-.211-.141-.375-.375-.375h-4.141l2.898-13.613h3.91a.6.6 0 0 0 .559-.469l.469-2.176c0-.211-.141-.375-.375-.375h-6.012c-.422 0-1.637 0-1.988 1.637zm10.551 0L44.72 27.105c0 1.098.957 1.121 1.332 1.121h5.355c.422 0 1.617-.023 1.969-1.637l3.531-16.914c0-1.078-.961-1.102-1.332-1.102h-5.383c-.445 0-1.59.047-1.941 1.637zm1.66 14.996H48.79l2.898-13.613h1.125zm16.706-8.421l1.473-7.109c0-1.078-.961-1.102-1.332-1.102H60.23a.6.6 0 0 0-.562.469l-4 18.832c0 .211.188.352.395.352h2.785c.258 0 .492-.211.563-.469l1.66-7.859h1.125l-1.687 7.977c0 .211.188.352.398.352h2.785c.258 0 .492-.211.563-.469l1.684-8.117c0-1.102-.961-1.102-1.332-1.102l.047-.113c.418 0 1.637 0 1.965-1.641zm-3.77-5.191h1.125l-1.148 5.309h-1.121zm12.988 14.292l3.273-15.793c0-1.52-1.309-1.52-3.32-1.52h-4.375a.6.6 0 0 0-.562.469l-3.977 18.715c0 .258.07.469.371.469h4.375c2.34 0 3.723 0 4.215-2.34zM74.03 11.593h1.125l-2.902 13.613h-1.121zm5.148 12.891a.65.65 0 0 0-.586.469l-.605 2.922c0 .211.188.352.395.352h2.785c.258 0 .492-.211.563-.469l.609-2.922c0-.211-.164-.352-.375-.352zm0 0"/><use xlink:href="#B" x="60.522"/><path d="M99.043 8.574a.6.6 0 0 0-.562.469l-4 18.832c0 .211.188.352.395.352h2.785c.258 0 .492-.211.563-.469l1.66-7.859h1.125l-1.687 7.977c0 .211.188.352.398.352h2.785c.258 0 .492-.211.563-.469l3.977-18.809c0-.211-.141-.375-.375-.375h-2.785c-.258 0-.512.211-.559.469l-1.687 7.859h-1.121l1.684-7.953c0-.211-.141-.375-.375-.375zm0 0"/></g><path fill="none" d="M14.586 25.16l3.273-15.789c0-1.523-1.309-1.523-3.32-1.523h-4.375c-.258 0-.512.211-.559.469l-3.98 18.719c0 .254.074.469.375.469h4.375c2.336 0 3.719 0 4.211-2.344zm-1.801-14.289h1.121l-2.902 13.613H9.887zm8.516-3.023c-.258 0-.516.211-.559.469l-4.004 18.836c0 .207.187.352.398.352h2.781c.258 0 .492-.215.566-.469l3.977-18.809a.36.36 0 0 0-.379-.379zm7.414 19.656c.422 0 1.617-.023 1.969-1.641l1.777-8.586c0-1.074-.961-1.098-1.336-1.098h-2.059l1.148-5.309h3.441c.254 0 .512-.215.559-.469l.445-2.176a.36.36 0 0 0-.379-.379h-5.539c-.422 0-1.617.023-1.965 1.617l-1.805 8.75c0 1.074.961 1.098 1.336 1.098h2.059l-1.051 4.887h-3.207c-.258 0-.492.211-.566.469l-.512 2.484c0 .207.187.352.398.352zm8.262-18.016l-3.535 16.887c0 1.129.984 1.129 1.359 1.129h6.242c.258 0 .492-.215.566-.469l.418-2.082v-.094a.35.35 0 0 0-.371-.375h-4.141l2.902-13.613h3.906a.6.6 0 0 0 .559-.469l.469-2.176a.36.36 0 0 0-.379-.379h-6.008c-.422 0-1.637 0-1.988 1.641zm10.551 0l-3.535 16.887c0 1.105.961 1.129 1.336 1.129h5.355c.422 0 1.613-.023 1.969-1.641l3.531-16.914c0-1.078-.961-1.102-1.332-1.102h-5.387c-.438 0-1.586.051-1.938 1.641zm1.656 14.996h-1.117l2.902-13.613h1.117zm16.707-8.422l1.473-7.113c0-1.078-.957-1.102-1.328-1.102h-6.531a.6.6 0 0 0-.559.469l-4.004 18.836c0 .207.187.352.398.352h2.781c.258 0 .492-.215.566-.469l1.656-7.859h1.125l-1.684 7.977c0 .207.187.352.398.352h2.781c.258 0 .492-.215.562-.469l1.684-8.117c0-1.102-.961-1.102-1.332-1.102l.047-.117c.422 0 1.641 0 1.965-1.637zm-3.762-5.191h1.117l-1.141 5.309H60.98zm12.98 14.289l3.273-15.789c0-1.523-1.309-1.523-3.32-1.523h-4.375c-.258 0-.512.211-.559.469l-3.98 18.719c0 .254.074.469.375.469h4.375c2.336 0 3.719 0 4.211-2.344zm-1.801-14.289h1.121l-2.902 13.613h-1.121zm5.145 12.891c-.258 0-.512.211-.582.469l-.609 2.922c0 .207.188.352.398.352h2.781c.258 0 .492-.215.566-.469l.605-2.926c0-.211-.168-.348-.379-.348zm10.785 3.742c.422 0 1.613-.023 1.969-1.641l1.777-8.586c0-1.074-.961-1.098-1.336-1.098H89.59l1.148-5.309h3.437c.258 0 .516-.215.562-.469l.445-2.176a.36.36 0 0 0-.379-.379h-5.539c-.422 0-1.617.023-1.965 1.617l-1.805 8.75c0 1.074.961 1.098 1.336 1.098h2.055l-1.051 4.887h-3.203c-.258 0-.492.211-.566.469l-.512 2.484c0 .207.187.352.398.352zm9.078-19.656a.6.6 0 0 0-.559.469l-4.004 18.836c0 .207.187.352.398.352h2.781c.258 0 .492-.215.566-.469l1.656-7.859h1.125l-1.684 7.977c0 .207.188.352.398.352h2.781c.258 0 .492-.215.563-.469l3.98-18.809a.36.36 0 0 0-.379-.379h-2.781c-.258 0-.512.211-.562.469l-1.68 7.863h-1.125l1.684-7.953a.36.36 0 0 0-.379-.379zm0 0" stroke="#737373" stroke-width=".439"/><defs ><path id="B" d="M29.441 28.226c.422 0 1.613-.023 1.965-1.637l1.777-8.586c0-1.078-.957-1.102-1.332-1.102h-2.059l1.145-5.309h3.441a.6.6 0 0 0 .563-.469l.441-2.176c0-.211-.141-.375-.375-.375h-5.543c-.422 0-1.613.023-1.965 1.613l-1.801 8.75c0 1.078.957 1.102 1.332 1.102h2.059l-1.051 4.891h-3.207c-.258 0-.492.207-.562.465l-.512 2.48c0 .211.188.352.395.352zm0 0"/></defs></svg>