<svg xmlns="http://www.w3.org/2000/svg" width="64" zoomAndPan="magnify" viewBox="0 0 48 48" height="64" preserveAspectRatio="xMidYMid meet" xmlns:v="https://vecta.io/nano"><defs><clipPath id="A"><path d="M14 1.133h20V18H14zm0 0" clip-rule="nonzero"/></clipPath><clipPath id="B"><path d="M3.805 4H25v41.949H3.805zm0 0" clip-rule="nonzero"/></clipPath><clipPath id="C"><path d="M24 4h20.211v41.949H24zm0 0" clip-rule="nonzero"/></clipPath></defs><path d="M29.09 25.695l-3.523 1.961c3.914.914 3.523-1.961 3.523-1.961m-6.633 1.961l-3.523-1.961s-.391 2.875 3.523 1.961" fill="#9155fd"/><g clip-path="url(#A)"><path fill="#9155fd" d="M18.039 3.441l.148.055c1.523 1.809 2.879 4.895 2.301 10.047 0 0-.023.395-.004 1.023.125 4.563 6.93 4.563 7.055 0 .02-.629-.004-1.023-.004-1.023-.586-5.203.805-8.301 2.348-10.102 0 0 1.184-1.504 3.266-2.309 0 0-3.082.152-5.301 1.809a20.02 20.02 0 0 0-3.836-.367 20.18 20.18 0 0 0-3.914.383c-2.223-1.672-5.328-1.824-5.328-1.824 2.086.805 3.27 2.309 3.27 2.309"/></g><g clip-path="url(#B)"><path fill="#9155fd" d="M20.426 41.461l-.246-.066-.691-.187-.516-.18-.293-.105-.301-.133c-.414-.176-.867-.418-1.332-.73-.23-.164-.473-.32-.695-.531l-.344-.309-.324-.348c-.418-.48-.812-1.035-1.113-1.652a11 11 0 0 1-.758-1.953l-.5-2.066-.402-2.066-.457-1.969-.141-.469-.07-.227-.082-.223-.156-.441-.18-.418-.09-.203-.098-.195-.195-.383-.215-.355-.219-.336-.453-.598c-.16-.176-.297-.359-.461-.5l-.434-.41-.398-.316c-.117-.098-.234-.172-.336-.234l-.254-.168-.211-.137.219.129.262.152.344.223.418.301c.148.109.293.25.457.391.172.137.32.313.488.484.176.172.324.383.492.586.086.102.16.219.238.332l.234.355.219.379.109.195c.039.066.07.137.102.207l.203.418.184.441.09.223.082.23.168.469.559 1.973.496 2.043.578 1.996a10.47 10.47 0 0 0 .797 1.801c.305.559.68 1.039 1.074 1.445l.301.297.316.258c.199.176.426.305.633.441.426.254.836.449 1.219.594l.273.105.258.078.453.137.699.156.246.055c.008 0 .016 0 .023.004.277.074.445.359.371.641s-.363.445-.641.371zm.828 1.355l-.02-.004-.629-1.078a.78.78 0 0 0 .711-.578c.113-.418-.137-.848-.555-.961-.012-.004-.027-.004-.035-.008l-.246-.051c-.055-.016-.117-.027-.191-.043l-.43-.094c-.312-.937-.52-1.961-.547-3.066l1.695 1.305s-.781-6.574-4.305-8.84c0 0-4.961-3.441-4.699-7.102 0 0 2.086 2.484 4.176 2.355 0 0-4.59-3.27-4.187-6.664.336-2.848 4.789-8.355 3.996-13.754C8.828 7.34 3.816 14.48 3.816 22.793c0 9.18 6.113 16.93 14.488 19.395 2.75 2.516 5.512 3.676 5.707 3.754-.852-.488-2.758-3.125-2.758-3.125"/></g><g clip-path="url(#C)"><path fill="#393536" d="M39.105 23.855l-.332.234-.398.316c-.145.121-.281.266-.437.41s-.297.324-.457.5-.301.387-.457.598a2.9 2.9 0 0 0-.215.336l-.215.355-.195.383-.102.195-.09.203-.176.418-.16.441-.078.223-.07.227-.141.469-.461 1.969-.402 2.066-.496 2.066a11.31 11.31 0 0 1-.758 1.953c-.301.617-.695 1.172-1.117 1.652l-.324.348c-.109.109-.23.207-.344.309-.219.211-.465.367-.691.531-.465.313-.922.555-1.336.73l-.301.133-.289.105-.516.18-.695.188-.242.066c-.281.074-.566-.094-.641-.371a.52.52 0 0 1 .371-.641c.008-.004.016-.004.023-.004l.246-.055.695-.156.453-.137.258-.078.273-.105a7.73 7.73 0 0 0 1.223-.594c.203-.137.43-.266.633-.441l.316-.258.301-.297c.391-.406.77-.887 1.074-1.445a10.47 10.47 0 0 0 .797-1.801l.578-1.996.496-2.043.559-1.973.164-.469.082-.23.094-.223.184-.441.199-.418.102-.207.113-.195.215-.379.238-.355.234-.332.492-.586.488-.484.461-.391.414-.301c.121-.094.242-.16.348-.223l.262-.152.219-.129-.215.137-.254.168zm-7.07-19.621c-.793 5.398 3.66 10.906 3.996 13.754.402 3.395-4.187 6.664-4.187 6.664 2.09.129 4.176-2.355 4.176-2.355.262 3.66-4.699 7.102-4.699 7.102-3.523 2.266-4.305 8.84-4.305 8.84l1.695-1.305c-.027 1.105-.234 2.133-.551 3.066-.156.039-.297.066-.418.094l-.187.039-.246.055c-.012.004-.023.004-.039.008a.79.79 0 0 0-.555.961.79.79 0 0 0 .703.578c-.199.383-.414.746-.637 1.082 0 0-1.914 2.648-2.762 3.129.164-.066 2.949-1.227 5.719-3.766 8.367-2.469 14.473-10.215 14.473-19.387 0-8.312-5.012-15.453-12.176-18.559"/></g></svg>