<svg xmlns="http://www.w3.org/2000/svg" xmlns:xlink="http://www.w3.org/1999/xlink" width="150" zoomAndPan="magnify" viewBox="0 0 112.5 30" height="40" preserveAspectRatio="xMidYMid meet" xmlns:v="https://vecta.io/nano"><g fill="#f0f"><path d="M6.224 12.326h4.16v7.973h2.078v-7.973h-2.078v-2.082H4.142v12.137h6.242v-2.082h-4.16zm9.812 10.055h2.082V10.244h-2.082zm0 0"/><use xlink:href="#B"/><path d="M33.598 12.326v7.973h2.082v2.082h4.16v-2.082h-4.16v-7.973zm2.082-2.082v2.082h4.16v2.078h2.078v-2.078H39.84v-2.082zm6.238 10.055v-2.078H39.84v2.078zm0 0"/><use xlink:href="#C"/><use xlink:href="#D"/><path d="M71.36 12.326h4.16v7.973h2.078v-7.973H75.52v-2.082h-6.242v12.137h6.242v-2.082h-4.16zm9.811 7.973v2.082h2.082v-2.082zm0 0"/><use xlink:href="#B" x="65.136"/><path d="M98.734 10.244v12.137h2.082v-5.027h4.16v5.027h2.078V10.244h-2.078v5.027h-4.16v-5.027zm0 0"/></g><g fill="#0ff"><path d="M7.529 12.651h4.16v7.973h2.078v-7.973h-2.078v-2.082H5.447v12.137h6.242v-2.082h-4.16zm9.811 10.055h2.082V10.569H17.34zm0 0"/><use xlink:href="#B" x="1.304" y="0.325"/><use xlink:href="#E"/><use xlink:href="#C" x="1.304" y="0.325"/><use xlink:href="#D" x="1.304" y="0.325"/><path d="M72.664 12.651h4.16v7.973h2.078v-7.973h-2.078v-2.082h-6.242v12.137h6.242v-2.082h-4.16zm9.812 7.973v2.082h2.082v-2.082zm0 0"/><use xlink:href="#B" x="66.44" y="0.325"/><path d="M100.038 10.569v12.137h2.082v-5.027h4.16v5.027h2.078V10.569h-2.078v5.027h-4.16v-5.027zm0 0"/></g><g fill="#3b1b72"><path d="M6.876 12.488h4.16v7.973h2.078v-7.973h-2.078v-2.082H4.794v12.137h6.242v-2.082h-4.16zm9.812 10.055h2.082V10.406h-2.082zm0 0"/><use xlink:href="#B" x="0.652" y="0.162"/><use xlink:href="#E" x="-0.652" y="-0.163"/><use xlink:href="#C" x="0.652" y="0.162"/><use xlink:href="#D" x="0.652" y="0.162"/><path d="M72.012 12.488h4.16v7.973h2.078v-7.973h-2.078v-2.082H69.93v12.137h6.242v-2.082h-4.16zm9.811 7.973v2.082h2.082v-2.082zm0 0"/><use xlink:href="#B" x="65.788" y="0.162"/><path d="M99.386 10.406v12.137h2.082v-5.027h4.16v5.027h2.078V10.406h-2.078v5.027h-4.16v-5.027zm0 0"/></g><defs ><path id="B" d="M21.705 12.326v2.945h2.082v2.082h4.16v2.945h2.078v-2.945h-2.078v-2.082h-4.16v-2.945zm2.082 7.973v-2.078h-2.082v2.078h2.082v2.082h4.16v-2.082zm0-10.055v2.082h4.16v2.078h2.078v-2.078h-2.078v-2.082zm0 0"/><path id="C" d="M47.574 12.326h4.16v7.973h2.078v-7.973h-2.078v-2.082h-4.16zm0 0h-2.082v7.973h2.082v2.082h4.16v-2.082h-4.16zm0 0"/><path id="D" d="M59.467 12.326h4.16v2.945h2.078v-2.945h-2.078v-2.082h-6.242v12.137h2.082v-5.027h4.16v5.027h2.078v-5.027h-2.078v-2.082h-4.16zm0 0"/><path id="E" d="M34.903 12.651v7.973h2.082v2.082h4.16v-2.082h-4.16v-7.973zm2.082-2.082v2.082h4.16v2.078h2.078v-2.078h-2.078v-2.082zm6.238 10.055v-2.078h-2.078v2.078zm0 0"/></defs></svg>