<svg xmlns="http://www.w3.org/2000/svg" xmlns:xlink="http://www.w3.org/1999/xlink" width="150" zoomAndPan="magnify" viewBox="0 0 112.5 30.000001" height="40" preserveAspectRatio="xMidYMid meet" version="1.0"><defs><g/></defs><g fill="#ff00ff" fill-opacity="1"><g transform="translate(3.275345, 22.380631)"><g><path d="M 2.949219 -10.054688 L 7.109375 -10.054688 L 7.109375 -2.082031 L 9.1875 -2.082031 L 9.1875 -10.054688 L 7.109375 -10.054688 L 7.109375 -12.136719 L 0.867188 -12.136719 L 0.867188 0 L 7.109375 0 L 7.109375 -2.082031 L 2.949219 -2.082031 Z M 2.949219 -10.054688 "/></g></g></g><g fill="#ff00ff" fill-opacity="1"><g transform="translate(15.168572, 22.380631)"><g><path d="M 0.867188 0 L 2.949219 0 L 2.949219 -12.136719 L 0.867188 -12.136719 Z M 0.867188 0 "/></g></g></g><g fill="#ff00ff" fill-opacity="1"><g transform="translate(20.838215, 22.380631)"><g><path d="M 0.867188 -10.054688 L 0.867188 -7.109375 L 2.949219 -7.109375 L 2.949219 -5.027344 L 7.109375 -5.027344 L 7.109375 -2.082031 L 9.1875 -2.082031 L 9.1875 -5.027344 L 7.109375 -5.027344 L 7.109375 -7.109375 L 2.949219 -7.109375 L 2.949219 -10.054688 Z M 2.949219 -2.082031 L 2.949219 -4.160156 L 0.867188 -4.160156 L 0.867188 -2.082031 L 2.949219 -2.082031 L 2.949219 0 L 7.109375 0 L 7.109375 -2.082031 Z M 2.949219 -12.136719 L 2.949219 -10.054688 L 7.109375 -10.054688 L 7.109375 -7.976562 L 9.1875 -7.976562 L 9.1875 -10.054688 L 7.109375 -10.054688 L 7.109375 -12.136719 Z M 2.949219 -12.136719 "/></g></g></g><g fill="#ff00ff" fill-opacity="1"><g transform="translate(32.731443, 22.380631)"><g><path d="M 0.867188 -10.054688 L 0.867188 -2.082031 L 2.949219 -2.082031 L 2.949219 0 L 7.109375 0 L 7.109375 -2.082031 L 2.949219 -2.082031 L 2.949219 -10.054688 Z M 2.949219 -12.136719 L 2.949219 -10.054688 L 7.109375 -10.054688 L 7.109375 -7.976562 L 9.1875 -7.976562 L 9.1875 -10.054688 L 7.109375 -10.054688 L 7.109375 -12.136719 Z M 9.1875 -2.082031 L 9.1875 -4.160156 L 7.109375 -4.160156 L 7.109375 -2.082031 Z M 9.1875 -2.082031 "/></g></g></g><g fill="#ff00ff" fill-opacity="1"><g transform="translate(44.624668, 22.380631)"><g><path d="M 2.949219 -10.054688 L 7.109375 -10.054688 L 7.109375 -2.082031 L 9.1875 -2.082031 L 9.1875 -10.054688 L 7.109375 -10.054688 L 7.109375 -12.136719 L 2.949219 -12.136719 Z M 2.949219 -10.054688 L 0.867188 -10.054688 L 0.867188 -2.082031 L 2.949219 -2.082031 L 2.949219 0 L 7.109375 0 L 7.109375 -2.082031 L 2.949219 -2.082031 Z M 2.949219 -10.054688 "/></g></g></g><g fill="#ff00ff" fill-opacity="1"><g transform="translate(56.517893, 22.380631)"><g><path d="M 2.949219 -10.054688 L 7.109375 -10.054688 L 7.109375 -7.109375 L 9.1875 -7.109375 L 9.1875 -10.054688 L 7.109375 -10.054688 L 7.109375 -12.136719 L 0.867188 -12.136719 L 0.867188 0 L 2.949219 0 L 2.949219 -5.027344 L 7.109375 -5.027344 L 7.109375 0 L 9.1875 0 L 9.1875 -5.027344 L 7.109375 -5.027344 L 7.109375 -7.109375 L 2.949219 -7.109375 Z M 2.949219 -10.054688 "/></g></g></g><g fill="#ff00ff" fill-opacity="1"><g transform="translate(68.411118, 22.380631)"><g><path d="M 2.949219 -10.054688 L 7.109375 -10.054688 L 7.109375 -2.082031 L 9.1875 -2.082031 L 9.1875 -10.054688 L 7.109375 -10.054688 L 7.109375 -12.136719 L 0.867188 -12.136719 L 0.867188 0 L 7.109375 0 L 7.109375 -2.082031 L 2.949219 -2.082031 Z M 2.949219 -10.054688 "/></g></g></g><g fill="#ff00ff" fill-opacity="1"><g transform="translate(80.304343, 22.380631)"><g><path d="M 0.867188 -2.082031 L 0.867188 0 L 2.949219 0 L 2.949219 -2.082031 Z M 0.867188 -2.082031 "/></g></g></g><g fill="#ff00ff" fill-opacity="1"><g transform="translate(85.973985, 22.380631)"><g><path d="M 0.867188 -10.054688 L 0.867188 -7.109375 L 2.949219 -7.109375 L 2.949219 -5.027344 L 7.109375 -5.027344 L 7.109375 -2.082031 L 9.1875 -2.082031 L 9.1875 -5.027344 L 7.109375 -5.027344 L 7.109375 -7.109375 L 2.949219 -7.109375 L 2.949219 -10.054688 Z M 2.949219 -2.082031 L 2.949219 -4.160156 L 0.867188 -4.160156 L 0.867188 -2.082031 L 2.949219 -2.082031 L 2.949219 0 L 7.109375 0 L 7.109375 -2.082031 Z M 2.949219 -12.136719 L 2.949219 -10.054688 L 7.109375 -10.054688 L 7.109375 -7.976562 L 9.1875 -7.976562 L 9.1875 -10.054688 L 7.109375 -10.054688 L 7.109375 -12.136719 Z M 2.949219 -12.136719 "/></g></g></g><g fill="#ff00ff" fill-opacity="1"><g transform="translate(97.86721, 22.380631)"><g><path d="M 0.867188 -12.136719 L 0.867188 0 L 2.949219 0 L 2.949219 -5.027344 L 7.109375 -5.027344 L 7.109375 0 L 9.1875 0 L 9.1875 -12.136719 L 7.109375 -12.136719 L 7.109375 -7.109375 L 2.949219 -7.109375 L 2.949219 -12.136719 Z M 0.867188 -12.136719 "/></g></g></g><g fill="#00ffff" fill-opacity="1"><g transform="translate(4.579536, 22.705802)"><g><path d="M 2.949219 -10.054688 L 7.109375 -10.054688 L 7.109375 -2.082031 L 9.1875 -2.082031 L 9.1875 -10.054688 L 7.109375 -10.054688 L 7.109375 -12.136719 L 0.867188 -12.136719 L 0.867188 0 L 7.109375 0 L 7.109375 -2.082031 L 2.949219 -2.082031 Z M 2.949219 -10.054688 "/></g></g></g><g fill="#00ffff" fill-opacity="1"><g transform="translate(16.472763, 22.705802)"><g><path d="M 0.867188 0 L 2.949219 0 L 2.949219 -12.136719 L 0.867188 -12.136719 Z M 0.867188 0 "/></g></g></g><g fill="#00ffff" fill-opacity="1"><g transform="translate(22.142406, 22.705802)"><g><path d="M 0.867188 -10.054688 L 0.867188 -7.109375 L 2.949219 -7.109375 L 2.949219 -5.027344 L 7.109375 -5.027344 L 7.109375 -2.082031 L 9.1875 -2.082031 L 9.1875 -5.027344 L 7.109375 -5.027344 L 7.109375 -7.109375 L 2.949219 -7.109375 L 2.949219 -10.054688 Z M 2.949219 -2.082031 L 2.949219 -4.160156 L 0.867188 -4.160156 L 0.867188 -2.082031 L 2.949219 -2.082031 L 2.949219 0 L 7.109375 0 L 7.109375 -2.082031 Z M 2.949219 -12.136719 L 2.949219 -10.054688 L 7.109375 -10.054688 L 7.109375 -7.976562 L 9.1875 -7.976562 L 9.1875 -10.054688 L 7.109375 -10.054688 L 7.109375 -12.136719 Z M 2.949219 -12.136719 "/></g></g></g><g fill="#00ffff" fill-opacity="1"><g transform="translate(34.035634, 22.705802)"><g><path d="M 0.867188 -10.054688 L 0.867188 -2.082031 L 2.949219 -2.082031 L 2.949219 0 L 7.109375 0 L 7.109375 -2.082031 L 2.949219 -2.082031 L 2.949219 -10.054688 Z M 2.949219 -12.136719 L 2.949219 -10.054688 L 7.109375 -10.054688 L 7.109375 -7.976562 L 9.1875 -7.976562 L 9.1875 -10.054688 L 7.109375 -10.054688 L 7.109375 -12.136719 Z M 9.1875 -2.082031 L 9.1875 -4.160156 L 7.109375 -4.160156 L 7.109375 -2.082031 Z M 9.1875 -2.082031 "/></g></g></g><g fill="#00ffff" fill-opacity="1"><g transform="translate(45.928859, 22.705802)"><g><path d="M 2.949219 -10.054688 L 7.109375 -10.054688 L 7.109375 -2.082031 L 9.1875 -2.082031 L 9.1875 -10.054688 L 7.109375 -10.054688 L 7.109375 -12.136719 L 2.949219 -12.136719 Z M 2.949219 -10.054688 L 0.867188 -10.054688 L 0.867188 -2.082031 L 2.949219 -2.082031 L 2.949219 0 L 7.109375 0 L 7.109375 -2.082031 L 2.949219 -2.082031 Z M 2.949219 -10.054688 "/></g></g></g><g fill="#00ffff" fill-opacity="1"><g transform="translate(57.822084, 22.705802)"><g><path d="M 2.949219 -10.054688 L 7.109375 -10.054688 L 7.109375 -7.109375 L 9.1875 -7.109375 L 9.1875 -10.054688 L 7.109375 -10.054688 L 7.109375 -12.136719 L 0.867188 -12.136719 L 0.867188 0 L 2.949219 0 L 2.949219 -5.027344 L 7.109375 -5.027344 L 7.109375 0 L 9.1875 0 L 9.1875 -5.027344 L 7.109375 -5.027344 L 7.109375 -7.109375 L 2.949219 -7.109375 Z M 2.949219 -10.054688 "/></g></g></g><g fill="#00ffff" fill-opacity="1"><g transform="translate(69.715309, 22.705802)"><g><path d="M 2.949219 -10.054688 L 7.109375 -10.054688 L 7.109375 -2.082031 L 9.1875 -2.082031 L 9.1875 -10.054688 L 7.109375 -10.054688 L 7.109375 -12.136719 L 0.867188 -12.136719 L 0.867188 0 L 7.109375 0 L 7.109375 -2.082031 L 2.949219 -2.082031 Z M 2.949219 -10.054688 "/></g></g></g><g fill="#00ffff" fill-opacity="1"><g transform="translate(81.608535, 22.705802)"><g><path d="M 0.867188 -2.082031 L 0.867188 0 L 2.949219 0 L 2.949219 -2.082031 Z M 0.867188 -2.082031 "/></g></g></g><g fill="#00ffff" fill-opacity="1"><g transform="translate(87.278176, 22.705802)"><g><path d="M 0.867188 -10.054688 L 0.867188 -7.109375 L 2.949219 -7.109375 L 2.949219 -5.027344 L 7.109375 -5.027344 L 7.109375 -2.082031 L 9.1875 -2.082031 L 9.1875 -5.027344 L 7.109375 -5.027344 L 7.109375 -7.109375 L 2.949219 -7.109375 L 2.949219 -10.054688 Z M 2.949219 -2.082031 L 2.949219 -4.160156 L 0.867188 -4.160156 L 0.867188 -2.082031 L 2.949219 -2.082031 L 2.949219 0 L 7.109375 0 L 7.109375 -2.082031 Z M 2.949219 -12.136719 L 2.949219 -10.054688 L 7.109375 -10.054688 L 7.109375 -7.976562 L 9.1875 -7.976562 L 9.1875 -10.054688 L 7.109375 -10.054688 L 7.109375 -12.136719 Z M 2.949219 -12.136719 "/></g></g></g><g fill="#00ffff" fill-opacity="1"><g transform="translate(99.171401, 22.705802)"><g><path d="M 0.867188 -12.136719 L 0.867188 0 L 2.949219 0 L 2.949219 -5.027344 L 7.109375 -5.027344 L 7.109375 0 L 9.1875 0 L 9.1875 -12.136719 L 7.109375 -12.136719 L 7.109375 -7.109375 L 2.949219 -7.109375 L 2.949219 -12.136719 Z M 0.867188 -12.136719 "/></g></g></g><g fill="#3b1b72" fill-opacity="1"><g transform="translate(3.927441, 22.543216)"><g><path d="M 2.949219 -10.054688 L 7.109375 -10.054688 L 7.109375 -2.082031 L 9.1875 -2.082031 L 9.1875 -10.054688 L 7.109375 -10.054688 L 7.109375 -12.136719 L 0.867188 -12.136719 L 0.867188 0 L 7.109375 0 L 7.109375 -2.082031 L 2.949219 -2.082031 Z M 2.949219 -10.054688 "/></g></g></g><g fill="#3b1b72" fill-opacity="1"><g transform="translate(15.820667, 22.543216)"><g><path d="M 0.867188 0 L 2.949219 0 L 2.949219 -12.136719 L 0.867188 -12.136719 Z M 0.867188 0 "/></g></g></g><g fill="#3b1b72" fill-opacity="1"><g transform="translate(21.49031, 22.543216)"><g><path d="M 0.867188 -10.054688 L 0.867188 -7.109375 L 2.949219 -7.109375 L 2.949219 -5.027344 L 7.109375 -5.027344 L 7.109375 -2.082031 L 9.1875 -2.082031 L 9.1875 -5.027344 L 7.109375 -5.027344 L 7.109375 -7.109375 L 2.949219 -7.109375 L 2.949219 -10.054688 Z M 2.949219 -2.082031 L 2.949219 -4.160156 L 0.867188 -4.160156 L 0.867188 -2.082031 L 2.949219 -2.082031 L 2.949219 0 L 7.109375 0 L 7.109375 -2.082031 Z M 2.949219 -12.136719 L 2.949219 -10.054688 L 7.109375 -10.054688 L 7.109375 -7.976562 L 9.1875 -7.976562 L 9.1875 -10.054688 L 7.109375 -10.054688 L 7.109375 -12.136719 Z M 2.949219 -12.136719 "/></g></g></g><g fill="#3b1b72" fill-opacity="1"><g transform="translate(33.383538, 22.543216)"><g><path d="M 0.867188 -10.054688 L 0.867188 -2.082031 L 2.949219 -2.082031 L 2.949219 0 L 7.109375 0 L 7.109375 -2.082031 L 2.949219 -2.082031 L 2.949219 -10.054688 Z M 2.949219 -12.136719 L 2.949219 -10.054688 L 7.109375 -10.054688 L 7.109375 -7.976562 L 9.1875 -7.976562 L 9.1875 -10.054688 L 7.109375 -10.054688 L 7.109375 -12.136719 Z M 9.1875 -2.082031 L 9.1875 -4.160156 L 7.109375 -4.160156 L 7.109375 -2.082031 Z M 9.1875 -2.082031 "/></g></g></g><g fill="#3b1b72" fill-opacity="1"><g transform="translate(45.276763, 22.543216)"><g><path d="M 2.949219 -10.054688 L 7.109375 -10.054688 L 7.109375 -2.082031 L 9.1875 -2.082031 L 9.1875 -10.054688 L 7.109375 -10.054688 L 7.109375 -12.136719 L 2.949219 -12.136719 Z M 2.949219 -10.054688 L 0.867188 -10.054688 L 0.867188 -2.082031 L 2.949219 -2.082031 L 2.949219 0 L 7.109375 0 L 7.109375 -2.082031 L 2.949219 -2.082031 Z M 2.949219 -10.054688 "/></g></g></g><g fill="#3b1b72" fill-opacity="1"><g transform="translate(57.169989, 22.543216)"><g><path d="M 2.949219 -10.054688 L 7.109375 -10.054688 L 7.109375 -7.109375 L 9.1875 -7.109375 L 9.1875 -10.054688 L 7.109375 -10.054688 L 7.109375 -12.136719 L 0.867188 -12.136719 L 0.867188 0 L 2.949219 0 L 2.949219 -5.027344 L 7.109375 -5.027344 L 7.109375 0 L 9.1875 0 L 9.1875 -5.027344 L 7.109375 -5.027344 L 7.109375 -7.109375 L 2.949219 -7.109375 Z M 2.949219 -10.054688 "/></g></g></g><g fill="#3b1b72" fill-opacity="1"><g transform="translate(69.063214, 22.543216)"><g><path d="M 2.949219 -10.054688 L 7.109375 -10.054688 L 7.109375 -2.082031 L 9.1875 -2.082031 L 9.1875 -10.054688 L 7.109375 -10.054688 L 7.109375 -12.136719 L 0.867188 -12.136719 L 0.867188 0 L 7.109375 0 L 7.109375 -2.082031 L 2.949219 -2.082031 Z M 2.949219 -10.054688 "/></g></g></g><g fill="#3b1b72" fill-opacity="1"><g transform="translate(80.956439, 22.543216)"><g><path d="M 0.867188 -2.082031 L 0.867188 0 L 2.949219 0 L 2.949219 -2.082031 Z M 0.867188 -2.082031 "/></g></g></g><g fill="#3b1b72" fill-opacity="1"><g transform="translate(86.626081, 22.543216)"><g><path d="M 0.867188 -10.054688 L 0.867188 -7.109375 L 2.949219 -7.109375 L 2.949219 -5.027344 L 7.109375 -5.027344 L 7.109375 -2.082031 L 9.1875 -2.082031 L 9.1875 -5.027344 L 7.109375 -5.027344 L 7.109375 -7.109375 L 2.949219 -7.109375 L 2.949219 -10.054688 Z M 2.949219 -2.082031 L 2.949219 -4.160156 L 0.867188 -4.160156 L 0.867188 -2.082031 L 2.949219 -2.082031 L 2.949219 0 L 7.109375 0 L 7.109375 -2.082031 Z M 2.949219 -12.136719 L 2.949219 -10.054688 L 7.109375 -10.054688 L 7.109375 -7.976562 L 9.1875 -7.976562 L 9.1875 -10.054688 L 7.109375 -10.054688 L 7.109375 -12.136719 Z M 2.949219 -12.136719 "/></g></g></g><g fill="#3b1b72" fill-opacity="1"><g transform="translate(98.519306, 22.543216)"><g><path d="M 0.867188 -12.136719 L 0.867188 0 L 2.949219 0 L 2.949219 -5.027344 L 7.109375 -5.027344 L 7.109375 0 L 9.1875 0 L 9.1875 -12.136719 L 7.109375 -12.136719 L 7.109375 -7.109375 L 2.949219 -7.109375 L 2.949219 -12.136719 Z M 0.867188 -12.136719 "/></g></g></g></svg>