<svg xmlns="http://www.w3.org/2000/svg" xmlns:xlink="http://www.w3.org/1999/xlink" width="150" zoomAndPan="magnify" viewBox="0 0 112.5 37.5" height="50" preserveAspectRatio="xMidYMid meet" version="1.0"><defs><g/></defs><g fill="#9d3be1" fill-opacity="1"><g transform="translate(5.55417, 28.225837)"><g><path d="M 9.757812 -2.339844 C 13.007812 -17.640625 13.03125 -17.898438 13.03125 -18.132812 C 13.03125 -19.652344 11.722656 -19.652344 9.710938 -19.652344 L 5.335938 -19.652344 C 5.078125 -19.652344 4.820312 -19.441406 4.773438 -19.183594 L 0.796875 -0.46875 C 0.796875 -0.210938 0.867188 0 1.167969 0 L 5.542969 0 C 7.882812 0 9.265625 0 9.757812 -2.339844 Z M 7.953125 -16.632812 L 9.078125 -16.632812 L 6.175781 -3.019531 L 5.054688 -3.019531 Z M 7.953125 -16.632812 "/></g></g></g><g fill="#9d3be1" fill-opacity="1"><g transform="translate(16.690179, 28.225837)"><g><path d="M 5.335938 -19.652344 C 5.078125 -19.652344 4.820312 -19.441406 4.773438 -19.183594 C 0.796875 -0.421875 0.773438 -0.375 0.773438 -0.351562 C 0.773438 -0.140625 0.960938 0 1.167969 0 L 3.953125 0 C 4.210938 0 4.445312 -0.210938 4.515625 -0.46875 L 8.492188 -19.277344 C 8.492188 -19.488281 8.351562 -19.652344 8.117188 -19.652344 Z M 5.335938 -19.652344 "/></g></g></g><g fill="#9d3be1" fill-opacity="1"><g transform="translate(22.983504, 28.225837)"><g><path d="M 6.457031 0 C 6.878906 0 8.070312 -0.0234375 8.421875 -1.636719 C 10.175781 -9.894531 10.199219 -10.058594 10.199219 -10.222656 C 10.199219 -11.300781 9.242188 -11.324219 8.867188 -11.324219 L 6.808594 -11.324219 L 7.953125 -16.632812 L 11.394531 -16.632812 C 11.652344 -16.632812 11.910156 -16.84375 11.957031 -17.101562 L 12.398438 -19.277344 C 12.398438 -19.488281 12.257812 -19.652344 12.023438 -19.652344 L 6.480469 -19.652344 C 6.058594 -19.652344 4.867188 -19.628906 4.515625 -18.039062 C 2.738281 -9.617188 2.714844 -9.453125 2.714844 -9.289062 C 2.714844 -8.210938 3.671875 -8.1875 4.046875 -8.1875 L 6.105469 -8.1875 L 5.054688 -3.296875 L 1.847656 -3.296875 C 1.589844 -3.296875 1.355469 -3.089844 1.285156 -2.832031 C 0.796875 -0.421875 0.773438 -0.375 0.773438 -0.351562 C 0.773438 -0.140625 0.960938 0 1.167969 0 Z M 6.457031 0 "/></g></g></g><g fill="#9d3be1" fill-opacity="1"><g transform="translate(33.183736, 28.225837)"><g><path d="M 4.515625 -18.015625 C 0.984375 -1.449219 0.984375 -1.261719 0.984375 -1.121094 C 0.984375 0 1.964844 0 2.339844 0 L 8.585938 0 C 8.84375 0 9.078125 -0.210938 9.148438 -0.46875 L 9.570312 -2.550781 L 9.570312 -2.644531 C 9.570312 -2.855469 9.429688 -3.019531 9.195312 -3.019531 L 5.054688 -3.019531 L 7.953125 -16.632812 L 11.863281 -16.632812 C 12.117188 -16.632812 12.375 -16.84375 12.421875 -17.101562 L 12.890625 -19.277344 C 12.890625 -19.488281 12.75 -19.652344 12.515625 -19.652344 L 6.503906 -19.652344 C 6.082031 -19.652344 4.867188 -19.652344 4.515625 -18.015625 Z M 4.515625 -18.015625 "/></g></g></g><g fill="#9d3be1" fill-opacity="1"><g transform="translate(43.734886, 28.225837)"><g><path d="M 4.515625 -18.015625 C 0.984375 -1.449219 0.984375 -1.261719 0.984375 -1.121094 C 0.984375 -0.0234375 1.941406 0 2.316406 0 L 7.671875 0 C 8.09375 0 9.289062 -0.0234375 9.640625 -1.636719 C 13.148438 -18.226562 13.171875 -18.390625 13.171875 -18.550781 C 13.171875 -19.628906 12.210938 -19.652344 11.839844 -19.652344 L 6.457031 -19.652344 C 6.011719 -19.652344 4.867188 -19.605469 4.515625 -18.015625 Z M 6.175781 -3.019531 L 5.054688 -3.019531 L 7.953125 -16.632812 L 9.078125 -16.632812 Z M 6.175781 -3.019531 "/></g></g></g><g fill="#9d3be1" fill-opacity="1"><g transform="translate(54.894298, 28.225837)"><g><path d="M 11.722656 -11.441406 C 13.171875 -18.226562 13.195312 -18.390625 13.195312 -18.550781 C 13.195312 -19.628906 12.234375 -19.652344 11.863281 -19.652344 L 5.335938 -19.652344 C 5.078125 -19.652344 4.820312 -19.441406 4.773438 -19.183594 C 0.796875 -0.421875 0.773438 -0.375 0.773438 -0.351562 C 0.773438 -0.140625 0.960938 0 1.167969 0 L 3.953125 0 C 4.210938 0 4.445312 -0.210938 4.515625 -0.46875 L 6.175781 -8.328125 L 7.300781 -8.328125 C 5.636719 -0.421875 5.613281 -0.375 5.613281 -0.351562 C 5.613281 -0.140625 5.800781 0 6.011719 0 L 8.796875 0 C 9.054688 0 9.289062 -0.210938 9.359375 -0.46875 C 11.019531 -8.257812 11.042969 -8.421875 11.042969 -8.585938 C 11.042969 -9.6875 10.082031 -9.6875 9.710938 -9.6875 L 9.757812 -9.800781 C 10.175781 -9.800781 11.394531 -9.800781 11.722656 -11.441406 Z M 7.953125 -16.632812 L 9.078125 -16.632812 L 7.929688 -11.324219 L 6.808594 -11.324219 Z M 7.953125 -16.632812 "/></g></g></g><g fill="#9d3be1" fill-opacity="1"><g transform="translate(66.077097, 28.225837)"><g><path d="M 9.757812 -2.339844 C 13.007812 -17.640625 13.03125 -17.898438 13.03125 -18.132812 C 13.03125 -19.652344 11.722656 -19.652344 9.710938 -19.652344 L 5.335938 -19.652344 C 5.078125 -19.652344 4.820312 -19.441406 4.773438 -19.183594 L 0.796875 -0.46875 C 0.796875 -0.210938 0.867188 0 1.167969 0 L 5.542969 0 C 7.882812 0 9.265625 0 9.757812 -2.339844 Z M 7.953125 -16.632812 L 9.078125 -16.632812 L 6.175781 -3.019531 L 5.054688 -3.019531 Z M 7.953125 -16.632812 "/></g></g></g><g fill="#9d3be1" fill-opacity="1"><g transform="translate(77.213104, 28.225837)"><g><path d="M 1.964844 -3.742188 C 1.707031 -3.742188 1.449219 -3.53125 1.378906 -3.273438 C 0.796875 -0.421875 0.773438 -0.375 0.773438 -0.351562 C 0.773438 -0.140625 0.960938 0 1.167969 0 L 3.953125 0 C 4.210938 0 4.445312 -0.210938 4.515625 -0.46875 C 5.101562 -3.320312 5.125 -3.34375 5.125 -3.390625 C 5.125 -3.601562 4.960938 -3.742188 4.75 -3.742188 Z M 1.964844 -3.742188 "/></g></g></g><g fill="#9d3be1" fill-opacity="1"><g transform="translate(83.506427, 28.225837)"><g><path d="M 6.457031 0 C 6.878906 0 8.070312 -0.0234375 8.421875 -1.636719 C 10.175781 -9.894531 10.199219 -10.058594 10.199219 -10.222656 C 10.199219 -11.300781 9.242188 -11.324219 8.867188 -11.324219 L 6.808594 -11.324219 L 7.953125 -16.632812 L 11.394531 -16.632812 C 11.652344 -16.632812 11.910156 -16.84375 11.957031 -17.101562 L 12.398438 -19.277344 C 12.398438 -19.488281 12.257812 -19.652344 12.023438 -19.652344 L 6.480469 -19.652344 C 6.058594 -19.652344 4.867188 -19.628906 4.515625 -18.039062 C 2.738281 -9.617188 2.714844 -9.453125 2.714844 -9.289062 C 2.714844 -8.210938 3.671875 -8.1875 4.046875 -8.1875 L 6.105469 -8.1875 L 5.054688 -3.296875 L 1.847656 -3.296875 C 1.589844 -3.296875 1.355469 -3.089844 1.285156 -2.832031 C 0.796875 -0.421875 0.773438 -0.375 0.773438 -0.351562 C 0.773438 -0.140625 0.960938 0 1.167969 0 Z M 6.457031 0 "/></g></g></g><g fill="#9d3be1" fill-opacity="1"><g transform="translate(93.706657, 28.225837)"><g><path d="M 5.335938 -19.652344 C 5.078125 -19.652344 4.820312 -19.441406 4.773438 -19.183594 C 0.796875 -0.421875 0.773438 -0.375 0.773438 -0.351562 C 0.773438 -0.140625 0.960938 0 1.167969 0 L 3.953125 0 C 4.210938 0 4.445312 -0.210938 4.515625 -0.46875 L 6.175781 -8.328125 L 7.300781 -8.328125 C 5.636719 -0.421875 5.613281 -0.375 5.613281 -0.351562 C 5.613281 -0.140625 5.800781 0 6.011719 0 L 8.796875 0 C 9.054688 0 9.289062 -0.210938 9.359375 -0.46875 L 13.335938 -19.277344 C 13.335938 -19.488281 13.195312 -19.652344 12.960938 -19.652344 L 10.175781 -19.652344 C 9.917969 -19.652344 9.664062 -19.441406 9.617188 -19.183594 L 7.929688 -11.324219 L 6.808594 -11.324219 L 8.492188 -19.277344 C 8.492188 -19.488281 8.351562 -19.652344 8.117188 -19.652344 Z M 5.335938 -19.652344 "/></g></g></g><path stroke-linecap="butt" transform="matrix(0.743421, 0, 0, 0.743421, 1.078374, 6.686206)" fill="none" stroke-linejoin="miter" d="M 18.169467 24.849917 C 22.541148 4.273588 22.572675 3.926796 22.572675 3.611531 C 22.572675 1.562305 20.812442 1.562305 18.106414 1.562305 L 12.221457 1.562305 C 11.874665 1.562305 11.533128 1.846044 11.470075 2.192836 L 6.115815 27.372041 C 6.115815 27.713579 6.215649 28.002572 6.62024 28.002572 L 12.505196 28.002572 C 15.647343 28.002572 17.507409 28.002572 18.169467 24.849917 Z M 15.747177 5.62923 L 17.255197 5.62923 L 13.351159 23.940902 L 11.848393 23.940902 Z M 27.201823 1.562305 C 26.855031 1.562305 26.508239 1.846044 26.450441 2.192836 C 21.096181 27.42984 21.064655 27.492893 21.064655 27.529674 C 21.064655 27.808159 21.316867 28.002572 21.600606 28.002572 L 25.341757 28.002572 C 25.688549 28.002572 26.003815 27.713579 26.103649 27.372041 L 31.452653 2.071984 C 31.452653 1.782991 31.25824 1.562305 30.942974 1.562305 Z M 37.174722 28.002572 C 37.7422 28.002572 39.350054 27.971046 39.822953 25.795714 C 42.18219 14.682605 42.213716 14.472428 42.213716 14.246487 C 42.213716 12.80152 40.921128 12.769994 40.416703 12.769994 L 37.647621 12.769994 L 39.192422 5.62923 L 43.82157 5.62923 C 44.163108 5.62923 44.5099 5.340237 44.572953 4.998699 L 45.171957 2.071984 C 45.171957 1.782991 44.977544 1.562305 44.662278 1.562305 L 37.211503 1.562305 C 36.644025 1.562305 35.036171 1.593832 34.568528 3.737637 C 32.17251 15.071432 32.140983 15.286864 32.140983 15.507549 C 32.140983 16.952516 33.433572 16.984043 33.937996 16.984043 L 36.707079 16.984043 L 35.293638 23.557329 L 30.979755 23.557329 C 30.632963 23.557329 30.317698 23.841068 30.217863 24.18786 C 29.56106 27.42984 29.529534 27.492893 29.529534 27.529674 C 29.529534 27.808159 29.781746 28.002572 30.065485 28.002572 Z M 48.287832 3.769164 C 43.532577 26.047926 43.532577 26.300139 43.532577 26.484044 C 43.532577 28.002572 44.856692 28.002572 45.361117 28.002572 L 53.757688 28.002572 C 54.10448 28.002572 54.419746 27.713579 54.51958 27.372041 L 55.081803 24.571433 L 55.081803 24.445327 C 55.081803 24.156333 54.897898 23.940902 54.582633 23.940902 L 49.012942 23.940902 L 52.91698 5.62923 L 58.171405 5.62923 C 58.518197 5.62923 58.859735 5.340237 58.922788 4.998699 L 59.553319 2.071984 C 59.553319 1.782991 59.358905 1.562305 59.04364 1.562305 L 50.962334 1.562305 C 50.394856 1.562305 48.76073 1.562305 48.287832 3.769164 Z M 62.480034 3.769164 C 57.724779 26.047926 57.724779 26.300139 57.724779 26.484044 C 57.724779 27.971046 59.017368 28.002572 59.521793 28.002572 L 66.725609 28.002572 C 67.293087 28.002572 68.895687 27.971046 69.37384 25.795714 C 74.092313 3.485425 74.12384 3.269993 74.12384 3.044053 C 74.12384 1.593832 72.831251 1.562305 72.332081 1.562305 L 65.086229 1.562305 C 64.497733 1.562305 62.952932 1.630613 62.480034 3.769164 Z M 64.70791 23.940902 L 63.205145 23.940902 L 67.109182 5.62923 L 68.611948 5.62923 Z M 87.181086 12.612361 C 89.135733 3.485425 89.162005 3.269993 89.162005 3.044053 C 89.162005 1.593832 87.874671 1.562305 87.3755 1.562305 L 78.590101 1.562305 C 78.248564 1.562305 77.901772 1.846044 77.838719 2.192836 C 72.484459 27.42984 72.452933 27.492893 72.452933 27.529674 C 72.452933 27.808159 72.705145 28.002572 72.988884 28.002572 L 76.730035 28.002572 C 77.076827 28.002572 77.392092 27.713579 77.491927 27.372041 L 79.719803 16.800138 L 81.233077 16.800138 C 78.999947 27.42984 78.96842 27.492893 78.96842 27.529674 C 78.96842 27.808159 79.220632 28.002572 79.504371 28.002572 L 83.245522 28.002572 C 83.592314 28.002572 83.90758 27.713579 84.002159 27.372041 C 86.23529 16.889463 86.266817 16.668777 86.266817 16.453346 C 86.266817 14.971598 84.974228 14.971598 84.475058 14.971598 L 84.538111 14.813965 C 85.105589 14.813965 86.744969 14.813965 87.181086 12.612361 Z M 82.121075 5.62923 L 83.623841 5.62923 L 82.089549 12.769994 L 80.576274 12.769994 Z M 99.58153 24.849917 C 103.953212 4.273588 103.984738 3.926796 103.984738 3.611531 C 103.984738 1.562305 102.224506 1.562305 99.518477 1.562305 L 93.633521 1.562305 C 93.286729 1.562305 92.945191 1.846044 92.882138 2.192836 L 87.527879 27.372041 C 87.527879 27.713579 87.627713 28.002572 88.032303 28.002572 L 93.91726 28.002572 C 97.059406 28.002572 98.919472 28.002572 99.58153 24.849917 Z M 97.15924 5.62923 L 98.66726 5.62923 L 94.763222 23.940902 L 93.255202 23.940902 Z M 104.079318 22.968833 C 103.732526 22.968833 103.390988 23.252572 103.296408 23.599364 C 102.50299 27.42984 102.476718 27.492893 102.476718 27.529674 C 102.476718 27.808159 102.728931 28.002572 103.012669 28.002572 L 106.75382 28.002572 C 107.100612 28.002572 107.415878 27.713579 107.515712 27.372041 C 108.298621 23.531057 108.330148 23.49953 108.330148 23.436477 C 108.330148 23.152738 108.104207 22.968833 107.820468 22.968833 Z M 118.586786 28.002572 C 119.154264 28.002572 120.756863 27.971046 121.235016 25.795714 C 123.594253 14.682605 123.625779 14.472428 123.625779 14.246487 C 123.625779 12.80152 122.333191 12.769994 121.828766 12.769994 L 119.059684 12.769994 L 120.604485 5.62923 L 125.228379 5.62923 C 125.575171 5.62923 125.921963 5.340237 125.985016 4.998699 L 126.584021 2.071984 C 126.584021 1.782991 126.389607 1.562305 126.074341 1.562305 L 118.623567 1.562305 C 118.056089 1.562305 116.448235 1.593832 115.980591 3.737637 C 113.584573 15.071432 113.553046 15.286864 113.553046 15.507549 C 113.553046 16.952516 114.845635 16.984043 115.35006 16.984043 L 118.113887 16.984043 L 116.700447 23.557329 L 112.391818 23.557329 C 112.045026 23.557329 111.729761 23.841068 111.629927 24.18786 C 110.973124 27.42984 110.941597 27.492893 110.941597 27.529674 C 110.941597 27.808159 111.193809 28.002572 111.477548 28.002572 Z M 130.79807 1.562305 C 130.456532 1.562305 130.10974 1.846044 130.046687 2.192836 C 124.692428 27.42984 124.660901 27.492893 124.660901 27.529674 C 124.660901 27.808159 124.913113 28.002572 125.196852 28.002572 L 128.938003 28.002572 C 129.284795 28.002572 129.600061 27.713579 129.699895 27.372041 L 131.927771 16.800138 L 133.441045 16.800138 C 131.207915 27.42984 131.176388 27.492893 131.176388 27.529674 C 131.176388 27.808159 131.428601 28.002572 131.71234 28.002572 L 135.45349 28.002572 C 135.800282 28.002572 136.115548 27.713579 136.210128 27.372041 L 141.564387 2.071984 C 141.564387 1.782991 141.369973 1.562305 141.054708 1.562305 L 137.313557 1.562305 C 136.966765 1.562305 136.625227 1.846044 136.55692 2.192836 L 134.297517 12.769994 L 132.784242 12.769994 L 135.0489 2.071984 C 135.0489 1.782991 134.854486 1.562305 134.53922 1.562305 Z M 130.79807 1.562305 " stroke="#737373" stroke-width="0.59013" stroke-opacity="1" stroke-miterlimit="4"/></svg>