<svg xmlns="http://www.w3.org/2000/svg" xmlns:xlink="http://www.w3.org/1999/xlink" width="64" zoomAndPan="magnify" viewBox="0 0 48 48" height="64" preserveAspectRatio="xMidYMid meet" version="1.0"><defs><g/><clipPath id="id1"><path d="M 5.84375 2 L 25 2 L 25 41.144531 L 5.84375 41.144531 Z M 5.84375 2 " clip-rule="nonzero"/></clipPath><clipPath id="id2"><path d="M 24 2 L 42.578125 2 L 42.578125 41.144531 L 24 41.144531 Z M 24 2 " clip-rule="nonzero"/></clipPath></defs><path fill="#9155fd" d="M 28.832031 22.550781 L 25.628906 24.351562 C 29.1875 25.1875 28.832031 22.550781 28.832031 22.550781 " fill-opacity="1" fill-rule="nonzero"/><path fill="#9155fd" d="M 22.804688 24.351562 L 19.597656 22.550781 C 19.597656 22.550781 19.242188 25.1875 22.804688 24.351562 " fill-opacity="1" fill-rule="nonzero"/><path fill="#9155fd" d="M 18.785156 2.121094 L 18.917969 2.171875 C 20.304688 3.832031 21.539062 6.664062 21.011719 11.394531 C 21.011719 11.394531 20.992188 11.757812 21.007812 12.332031 C 21.125 16.523438 27.308594 16.523438 27.421875 12.332031 C 27.4375 11.757812 27.417969 11.394531 27.417969 11.394531 C 26.886719 6.617188 28.148438 3.773438 29.550781 2.121094 C 29.550781 2.121094 30.628906 0.742188 32.523438 0 C 32.523438 0 29.71875 0.140625 27.699219 1.660156 C 26.574219 1.441406 25.40625 1.324219 24.214844 1.324219 C 22.996094 1.324219 21.808594 1.445312 20.65625 1.675781 C 18.636719 0.140625 15.8125 0 15.8125 0 C 17.707031 0.742188 18.785156 2.121094 18.785156 2.121094 " fill-opacity="1" fill-rule="nonzero"/><g clip-path="url(#id1)"><path fill="#9155fd" d="M 20.953125 37.023438 C 20.953125 37.023438 20.875 37 20.730469 36.960938 C 20.585938 36.921875 20.375 36.867188 20.101562 36.789062 C 19.960938 36.738281 19.804688 36.683594 19.632812 36.625 C 19.546875 36.59375 19.460938 36.5625 19.367188 36.527344 C 19.277344 36.492188 19.1875 36.449219 19.09375 36.40625 C 18.71875 36.246094 18.304688 36.023438 17.882812 35.738281 C 17.675781 35.585938 17.453125 35.441406 17.25 35.25 C 17.148438 35.15625 17.042969 35.066406 16.9375 34.964844 C 16.84375 34.863281 16.746094 34.753906 16.644531 34.648438 C 16.261719 34.207031 15.90625 33.695312 15.632812 33.128906 C 15.351562 32.566406 15.117188 31.960938 14.941406 31.335938 C 14.761719 30.710938 14.617188 30.074219 14.488281 29.4375 C 14.367188 28.800781 14.242188 28.167969 14.125 27.542969 C 14 26.917969 13.863281 26.3125 13.707031 25.734375 C 13.664062 25.589844 13.621094 25.445312 13.578125 25.304688 C 13.558594 25.234375 13.535156 25.164062 13.515625 25.09375 C 13.488281 25.027344 13.464844 24.957031 13.441406 24.890625 C 13.394531 24.753906 13.347656 24.621094 13.296875 24.488281 C 13.242188 24.359375 13.1875 24.230469 13.136719 24.101562 C 13.109375 24.039062 13.085938 23.976562 13.054688 23.914062 C 13.023438 23.855469 12.992188 23.796875 12.964844 23.734375 C 12.902344 23.617188 12.84375 23.5 12.785156 23.382812 C 12.71875 23.273438 12.65625 23.164062 12.589844 23.058594 C 12.527344 22.949219 12.464844 22.84375 12.394531 22.75 C 12.25 22.558594 12.128906 22.363281 11.980469 22.203125 C 11.835938 22.039062 11.710938 21.871094 11.5625 21.742188 C 11.421875 21.609375 11.296875 21.476562 11.167969 21.367188 C 11.035156 21.261719 10.914062 21.164062 10.804688 21.078125 C 10.699219 20.984375 10.589844 20.917969 10.5 20.859375 C 10.410156 20.800781 10.332031 20.75 10.269531 20.707031 C 10.144531 20.625 10.078125 20.582031 10.078125 20.582031 C 10.078125 20.582031 10.144531 20.621094 10.273438 20.699219 C 10.339844 20.738281 10.417969 20.785156 10.511719 20.839844 C 10.605469 20.894531 10.714844 20.957031 10.828125 21.042969 C 10.941406 21.128906 11.066406 21.21875 11.207031 21.320312 C 11.339844 21.421875 11.472656 21.550781 11.625 21.679688 C 11.777344 21.804688 11.914062 21.964844 12.066406 22.125 C 12.226562 22.28125 12.359375 22.472656 12.515625 22.664062 C 12.59375 22.757812 12.660156 22.859375 12.730469 22.96875 C 12.800781 23.074219 12.871094 23.179688 12.945312 23.289062 C 13.007812 23.40625 13.074219 23.523438 13.140625 23.640625 C 13.175781 23.699219 13.207031 23.761719 13.242188 23.820312 C 13.277344 23.882812 13.304688 23.945312 13.335938 24.007812 C 13.394531 24.136719 13.457031 24.261719 13.519531 24.394531 C 13.574219 24.527344 13.628906 24.660156 13.683594 24.796875 C 13.710938 24.867188 13.742188 24.933594 13.769531 25.003906 C 13.792969 25.074219 13.816406 25.144531 13.84375 25.214844 C 13.890625 25.355469 13.945312 25.5 13.992188 25.644531 C 14.179688 26.226562 14.34375 26.835938 14.5 27.457031 C 14.648438 28.074219 14.800781 28.703125 14.953125 29.332031 C 15.105469 29.957031 15.277344 30.570312 15.476562 31.164062 C 15.671875 31.753906 15.921875 32.3125 16.203125 32.820312 C 16.480469 33.328125 16.820312 33.769531 17.179688 34.144531 C 17.273438 34.238281 17.363281 34.328125 17.453125 34.417969 C 17.546875 34.5 17.644531 34.574219 17.738281 34.652344 C 17.921875 34.8125 18.128906 34.929688 18.316406 35.058594 C 18.703125 35.292969 19.078125 35.472656 19.425781 35.601562 C 19.511719 35.636719 19.59375 35.671875 19.671875 35.699219 C 19.753906 35.726562 19.832031 35.75 19.910156 35.773438 C 20.058594 35.816406 20.195312 35.859375 20.320312 35.898438 C 20.589844 35.960938 20.808594 36.007812 20.953125 36.039062 C 21.101562 36.070312 21.179688 36.089844 21.179688 36.089844 C 21.183594 36.089844 21.191406 36.09375 21.199219 36.09375 C 21.453125 36.164062 21.601562 36.425781 21.535156 36.683594 C 21.46875 36.9375 21.207031 37.089844 20.953125 37.023438 Z M 21.707031 38.269531 L 21.691406 38.261719 C 21.492188 37.953125 21.300781 37.625 21.117188 37.273438 C 21.421875 37.257812 21.6875 37.046875 21.765625 36.742188 C 21.867188 36.359375 21.640625 35.964844 21.261719 35.863281 C 21.25 35.859375 21.238281 35.855469 21.230469 35.855469 L 21.003906 35.804688 C 20.957031 35.792969 20.898438 35.78125 20.832031 35.765625 C 20.722656 35.742188 20.589844 35.714844 20.441406 35.679688 C 20.15625 34.824219 19.964844 33.882812 19.941406 32.867188 L 21.484375 34.066406 C 21.484375 34.066406 20.773438 28.03125 17.570312 25.949219 C 17.570312 25.949219 13.058594 22.789062 13.296875 19.429688 C 13.296875 19.429688 15.195312 21.710938 17.09375 21.589844 C 17.09375 21.589844 12.921875 18.59375 13.289062 15.472656 C 13.59375 12.859375 17.640625 7.804688 16.921875 2.847656 C 10.410156 5.699219 5.851562 12.253906 5.851562 19.882812 C 5.851562 28.3125 11.414062 35.425781 19.027344 37.6875 C 21.523438 40 24.039062 41.0625 24.214844 41.136719 C 23.441406 40.6875 21.707031 38.269531 21.707031 38.269531 " fill-opacity="1" fill-rule="nonzero"/></g><g clip-path="url(#id2)"><path fill="#393536" d="M 37.9375 20.859375 C 37.847656 20.917969 37.742188 20.984375 37.636719 21.078125 C 37.527344 21.164062 37.40625 21.261719 37.273438 21.367188 C 37.144531 21.476562 37.019531 21.609375 36.875 21.742188 C 36.730469 21.871094 36.605469 22.039062 36.460938 22.203125 C 36.308594 22.363281 36.1875 22.558594 36.046875 22.75 C 35.972656 22.84375 35.910156 22.949219 35.847656 23.058594 C 35.785156 23.164062 35.71875 23.273438 35.652344 23.382812 C 35.59375 23.5 35.535156 23.617188 35.476562 23.734375 C 35.445312 23.796875 35.414062 23.855469 35.386719 23.914062 C 35.355469 23.976562 35.332031 24.039062 35.304688 24.101562 C 35.25 24.230469 35.195312 24.359375 35.140625 24.488281 C 35.09375 24.621094 35.046875 24.753906 34.996094 24.890625 C 34.972656 24.957031 34.949219 25.027344 34.925781 25.09375 C 34.902344 25.164062 34.882812 25.234375 34.859375 25.304688 C 34.820312 25.445312 34.773438 25.589844 34.734375 25.734375 C 34.574219 26.3125 34.441406 26.917969 34.316406 27.542969 C 34.195312 28.167969 34.074219 28.800781 33.949219 29.4375 C 33.824219 30.074219 33.675781 30.710938 33.496094 31.335938 C 33.324219 31.960938 33.085938 32.566406 32.808594 33.128906 C 32.535156 33.695312 32.175781 34.207031 31.792969 34.648438 C 31.695312 34.753906 31.597656 34.863281 31.5 34.964844 C 31.398438 35.066406 31.289062 35.15625 31.1875 35.25 C 30.988281 35.441406 30.765625 35.585938 30.558594 35.738281 C 30.132812 36.023438 29.722656 36.246094 29.34375 36.40625 C 29.25 36.449219 29.160156 36.492188 29.070312 36.527344 C 28.980469 36.5625 28.890625 36.59375 28.804688 36.625 C 28.636719 36.683594 28.480469 36.738281 28.335938 36.789062 C 28.0625 36.867188 27.851562 36.921875 27.707031 36.960938 C 27.5625 37 27.484375 37.023438 27.484375 37.023438 C 27.230469 37.089844 26.96875 36.9375 26.902344 36.683594 C 26.835938 36.425781 26.988281 36.164062 27.238281 36.09375 C 27.246094 36.09375 27.253906 36.089844 27.261719 36.089844 C 27.261719 36.089844 27.339844 36.070312 27.484375 36.039062 C 27.632812 36.007812 27.851562 35.960938 28.117188 35.898438 C 28.242188 35.859375 28.378906 35.816406 28.53125 35.773438 C 28.605469 35.75 28.683594 35.726562 28.765625 35.699219 C 28.847656 35.671875 28.929688 35.636719 29.015625 35.601562 C 29.363281 35.472656 29.738281 35.292969 30.125 35.058594 C 30.308594 34.929688 30.515625 34.8125 30.699219 34.652344 C 30.792969 34.574219 30.894531 34.5 30.988281 34.417969 C 31.078125 34.328125 31.167969 34.238281 31.261719 34.144531 C 31.617188 33.769531 31.960938 33.328125 32.238281 32.820312 C 32.515625 32.3125 32.765625 31.753906 32.960938 31.164062 C 33.160156 30.570312 33.332031 29.957031 33.488281 29.332031 C 33.636719 28.703125 33.789062 28.074219 33.9375 27.457031 C 34.09375 26.835938 34.257812 26.226562 34.445312 25.644531 C 34.492188 25.5 34.546875 25.355469 34.597656 25.214844 C 34.621094 25.144531 34.644531 25.074219 34.671875 25.003906 C 34.699219 24.933594 34.726562 24.867188 34.753906 24.796875 C 34.8125 24.660156 34.863281 24.527344 34.921875 24.394531 C 34.984375 24.261719 35.042969 24.136719 35.105469 24.007812 C 35.136719 23.945312 35.164062 23.882812 35.195312 23.820312 C 35.230469 23.761719 35.265625 23.699219 35.296875 23.640625 C 35.363281 23.523438 35.429688 23.40625 35.496094 23.289062 C 35.566406 23.179688 35.640625 23.074219 35.710938 22.96875 C 35.78125 22.859375 35.847656 22.757812 35.925781 22.664062 C 36.078125 22.472656 36.214844 22.28125 36.371094 22.125 C 36.527344 21.964844 36.660156 21.804688 36.816406 21.679688 C 36.964844 21.550781 37.097656 21.421875 37.234375 21.320312 C 37.371094 21.21875 37.496094 21.128906 37.613281 21.042969 C 37.722656 20.957031 37.832031 20.894531 37.925781 20.839844 C 38.019531 20.785156 38.101562 20.738281 38.164062 20.699219 C 38.292969 20.621094 38.363281 20.582031 38.363281 20.582031 C 38.363281 20.582031 38.296875 20.625 38.171875 20.707031 C 38.109375 20.75 38.03125 20.800781 37.9375 20.859375 Z M 31.507812 2.847656 C 30.789062 7.804688 34.835938 12.859375 35.140625 15.472656 C 35.507812 18.59375 31.335938 21.589844 31.335938 21.589844 C 33.234375 21.710938 35.132812 19.429688 35.132812 19.429688 C 35.371094 22.789062 30.859375 25.949219 30.859375 25.949219 C 27.65625 28.03125 26.945312 34.066406 26.945312 34.066406 L 28.488281 32.867188 C 28.464844 33.882812 28.273438 34.824219 27.988281 35.683594 C 27.84375 35.714844 27.714844 35.746094 27.609375 35.765625 C 27.542969 35.78125 27.484375 35.792969 27.4375 35.804688 L 27.210938 35.855469 C 27.203125 35.855469 27.191406 35.859375 27.179688 35.863281 C 26.800781 35.964844 26.574219 36.359375 26.675781 36.742188 C 26.753906 37.042969 27.011719 37.253906 27.3125 37.273438 C 27.128906 37.628906 26.933594 37.960938 26.734375 38.269531 C 26.734375 38.269531 24.992188 40.699219 24.222656 41.140625 C 24.21875 41.136719 24.21875 41.136719 24.214844 41.136719 C 24.21875 41.136719 24.21875 41.140625 24.21875 41.140625 C 24.21875 41.140625 24.21875 41.140625 24.214844 41.140625 C 24.214844 41.140625 24.21875 41.140625 24.222656 41.140625 C 24.226562 41.140625 24.226562 41.144531 24.226562 41.144531 C 24.226562 41.140625 24.222656 41.140625 24.222656 41.140625 C 24.371094 41.078125 26.90625 40.011719 29.421875 37.683594 C 37.027344 35.414062 42.578125 28.304688 42.578125 19.882812 C 42.578125 12.253906 38.023438 5.699219 31.507812 2.847656 " fill-opacity="1" fill-rule="nonzero"/></g><g fill="#ff00ff" fill-opacity="1"><g transform="translate(1.736328, 46.249044)"><g><path d="M 1.257812 -4.289062 L 3.03125 -4.289062 L 3.03125 -0.886719 L 3.917969 -0.886719 L 3.917969 -4.289062 L 3.03125 -4.289062 L 3.03125 -5.175781 L 0.371094 -5.175781 L 0.371094 0 L 3.03125 0 L 3.03125 -0.886719 L 1.257812 -0.886719 Z M 1.257812 -4.289062 "/></g></g></g><g fill="#ff00ff" fill-opacity="1"><g transform="translate(6.807877, 46.249044)"><g><path d="M 0.371094 0 L 1.257812 0 L 1.257812 -5.175781 L 0.371094 -5.175781 Z M 0.371094 0 "/></g></g></g><g fill="#ff00ff" fill-opacity="1"><g transform="translate(9.225421, 46.249044)"><g><path d="M 0.371094 -4.289062 L 0.371094 -3.03125 L 1.257812 -3.03125 L 1.257812 -2.144531 L 3.03125 -2.144531 L 3.03125 -0.886719 L 3.917969 -0.886719 L 3.917969 -2.144531 L 3.03125 -2.144531 L 3.03125 -3.03125 L 1.257812 -3.03125 L 1.257812 -4.289062 Z M 1.257812 -0.886719 L 1.257812 -1.773438 L 0.371094 -1.773438 L 0.371094 -0.886719 L 1.257812 -0.886719 L 1.257812 0 L 3.03125 0 L 3.03125 -0.886719 Z M 1.257812 -5.175781 L 1.257812 -4.289062 L 3.03125 -4.289062 L 3.03125 -3.402344 L 3.917969 -3.402344 L 3.917969 -4.289062 L 3.03125 -4.289062 L 3.03125 -5.175781 Z M 1.257812 -5.175781 "/></g></g></g><g fill="#ff00ff" fill-opacity="1"><g transform="translate(14.29697, 46.249044)"><g><path d="M 0.371094 -4.289062 L 0.371094 -0.886719 L 1.257812 -0.886719 L 1.257812 0 L 3.03125 0 L 3.03125 -0.886719 L 1.257812 -0.886719 L 1.257812 -4.289062 Z M 1.257812 -5.175781 L 1.257812 -4.289062 L 3.03125 -4.289062 L 3.03125 -3.402344 L 3.917969 -3.402344 L 3.917969 -4.289062 L 3.03125 -4.289062 L 3.03125 -5.175781 Z M 3.917969 -0.886719 L 3.917969 -1.773438 L 3.03125 -1.773438 L 3.03125 -0.886719 Z M 3.917969 -0.886719 "/></g></g></g><g fill="#ff00ff" fill-opacity="1"><g transform="translate(19.368519, 46.249044)"><g><path d="M 1.257812 -4.289062 L 3.03125 -4.289062 L 3.03125 -0.886719 L 3.917969 -0.886719 L 3.917969 -4.289062 L 3.03125 -4.289062 L 3.03125 -5.175781 L 1.257812 -5.175781 Z M 1.257812 -4.289062 L 0.371094 -4.289062 L 0.371094 -0.886719 L 1.257812 -0.886719 L 1.257812 0 L 3.03125 0 L 3.03125 -0.886719 L 1.257812 -0.886719 Z M 1.257812 -4.289062 "/></g></g></g><g fill="#ff00ff" fill-opacity="1"><g transform="translate(24.440069, 46.249044)"><g><path d="M 1.257812 -4.289062 L 3.03125 -4.289062 L 3.03125 -3.03125 L 3.917969 -3.03125 L 3.917969 -4.289062 L 3.03125 -4.289062 L 3.03125 -5.175781 L 0.371094 -5.175781 L 0.371094 0 L 1.257812 0 L 1.257812 -2.144531 L 3.03125 -2.144531 L 3.03125 0 L 3.917969 0 L 3.917969 -2.144531 L 3.03125 -2.144531 L 3.03125 -3.03125 L 1.257812 -3.03125 Z M 1.257812 -4.289062 "/></g></g></g><g fill="#ff00ff" fill-opacity="1"><g transform="translate(29.511618, 46.249044)"><g><path d="M 1.257812 -4.289062 L 3.03125 -4.289062 L 3.03125 -0.886719 L 3.917969 -0.886719 L 3.917969 -4.289062 L 3.03125 -4.289062 L 3.03125 -5.175781 L 0.371094 -5.175781 L 0.371094 0 L 3.03125 0 L 3.03125 -0.886719 L 1.257812 -0.886719 Z M 1.257812 -4.289062 "/></g></g></g><g fill="#ff00ff" fill-opacity="1"><g transform="translate(34.583167, 46.249044)"><g><path d="M 0.371094 -0.886719 L 0.371094 0 L 1.257812 0 L 1.257812 -0.886719 Z M 0.371094 -0.886719 "/></g></g></g><g fill="#ff00ff" fill-opacity="1"><g transform="translate(37.000711, 46.249044)"><g><path d="M 0.371094 -4.289062 L 0.371094 -3.03125 L 1.257812 -3.03125 L 1.257812 -2.144531 L 3.03125 -2.144531 L 3.03125 -0.886719 L 3.917969 -0.886719 L 3.917969 -2.144531 L 3.03125 -2.144531 L 3.03125 -3.03125 L 1.257812 -3.03125 L 1.257812 -4.289062 Z M 1.257812 -0.886719 L 1.257812 -1.773438 L 0.371094 -1.773438 L 0.371094 -0.886719 L 1.257812 -0.886719 L 1.257812 0 L 3.03125 0 L 3.03125 -0.886719 Z M 1.257812 -5.175781 L 1.257812 -4.289062 L 3.03125 -4.289062 L 3.03125 -3.402344 L 3.917969 -3.402344 L 3.917969 -4.289062 L 3.03125 -4.289062 L 3.03125 -5.175781 Z M 1.257812 -5.175781 "/></g></g></g><g fill="#ff00ff" fill-opacity="1"><g transform="translate(42.072262, 46.249044)"><g><path d="M 0.371094 -5.175781 L 0.371094 0 L 1.257812 0 L 1.257812 -2.144531 L 3.03125 -2.144531 L 3.03125 0 L 3.917969 0 L 3.917969 -5.175781 L 3.03125 -5.175781 L 3.03125 -3.03125 L 1.257812 -3.03125 L 1.257812 -5.175781 Z M 0.371094 -5.175781 "/></g></g></g><g fill="#00ffff" fill-opacity="1"><g transform="translate(2.292324, 46.387667)"><g><path d="M 1.257812 -4.289062 L 3.03125 -4.289062 L 3.03125 -0.886719 L 3.917969 -0.886719 L 3.917969 -4.289062 L 3.03125 -4.289062 L 3.03125 -5.175781 L 0.371094 -5.175781 L 0.371094 0 L 3.03125 0 L 3.03125 -0.886719 L 1.257812 -0.886719 Z M 1.257812 -4.289062 "/></g></g></g><g fill="#00ffff" fill-opacity="1"><g transform="translate(7.363873, 46.387667)"><g><path d="M 0.371094 0 L 1.257812 0 L 1.257812 -5.175781 L 0.371094 -5.175781 Z M 0.371094 0 "/></g></g></g><g fill="#00ffff" fill-opacity="1"><g transform="translate(9.781417, 46.387667)"><g><path d="M 0.371094 -4.289062 L 0.371094 -3.03125 L 1.257812 -3.03125 L 1.257812 -2.144531 L 3.03125 -2.144531 L 3.03125 -0.886719 L 3.917969 -0.886719 L 3.917969 -2.144531 L 3.03125 -2.144531 L 3.03125 -3.03125 L 1.257812 -3.03125 L 1.257812 -4.289062 Z M 1.257812 -0.886719 L 1.257812 -1.773438 L 0.371094 -1.773438 L 0.371094 -0.886719 L 1.257812 -0.886719 L 1.257812 0 L 3.03125 0 L 3.03125 -0.886719 Z M 1.257812 -5.175781 L 1.257812 -4.289062 L 3.03125 -4.289062 L 3.03125 -3.402344 L 3.917969 -3.402344 L 3.917969 -4.289062 L 3.03125 -4.289062 L 3.03125 -5.175781 Z M 1.257812 -5.175781 "/></g></g></g><g fill="#00ffff" fill-opacity="1"><g transform="translate(14.852966, 46.387667)"><g><path d="M 0.371094 -4.289062 L 0.371094 -0.886719 L 1.257812 -0.886719 L 1.257812 0 L 3.03125 0 L 3.03125 -0.886719 L 1.257812 -0.886719 L 1.257812 -4.289062 Z M 1.257812 -5.175781 L 1.257812 -4.289062 L 3.03125 -4.289062 L 3.03125 -3.402344 L 3.917969 -3.402344 L 3.917969 -4.289062 L 3.03125 -4.289062 L 3.03125 -5.175781 Z M 3.917969 -0.886719 L 3.917969 -1.773438 L 3.03125 -1.773438 L 3.03125 -0.886719 Z M 3.917969 -0.886719 "/></g></g></g><g fill="#00ffff" fill-opacity="1"><g transform="translate(19.924515, 46.387667)"><g><path d="M 1.257812 -4.289062 L 3.03125 -4.289062 L 3.03125 -0.886719 L 3.917969 -0.886719 L 3.917969 -4.289062 L 3.03125 -4.289062 L 3.03125 -5.175781 L 1.257812 -5.175781 Z M 1.257812 -4.289062 L 0.371094 -4.289062 L 0.371094 -0.886719 L 1.257812 -0.886719 L 1.257812 0 L 3.03125 0 L 3.03125 -0.886719 L 1.257812 -0.886719 Z M 1.257812 -4.289062 "/></g></g></g><g fill="#00ffff" fill-opacity="1"><g transform="translate(24.996065, 46.387667)"><g><path d="M 1.257812 -4.289062 L 3.03125 -4.289062 L 3.03125 -3.03125 L 3.917969 -3.03125 L 3.917969 -4.289062 L 3.03125 -4.289062 L 3.03125 -5.175781 L 0.371094 -5.175781 L 0.371094 0 L 1.257812 0 L 1.257812 -2.144531 L 3.03125 -2.144531 L 3.03125 0 L 3.917969 0 L 3.917969 -2.144531 L 3.03125 -2.144531 L 3.03125 -3.03125 L 1.257812 -3.03125 Z M 1.257812 -4.289062 "/></g></g></g><g fill="#00ffff" fill-opacity="1"><g transform="translate(30.067614, 46.387667)"><g><path d="M 1.257812 -4.289062 L 3.03125 -4.289062 L 3.03125 -0.886719 L 3.917969 -0.886719 L 3.917969 -4.289062 L 3.03125 -4.289062 L 3.03125 -5.175781 L 0.371094 -5.175781 L 0.371094 0 L 3.03125 0 L 3.03125 -0.886719 L 1.257812 -0.886719 Z M 1.257812 -4.289062 "/></g></g></g><g fill="#00ffff" fill-opacity="1"><g transform="translate(35.139163, 46.387667)"><g><path d="M 0.371094 -0.886719 L 0.371094 0 L 1.257812 0 L 1.257812 -0.886719 Z M 0.371094 -0.886719 "/></g></g></g><g fill="#00ffff" fill-opacity="1"><g transform="translate(37.556707, 46.387667)"><g><path d="M 0.371094 -4.289062 L 0.371094 -3.03125 L 1.257812 -3.03125 L 1.257812 -2.144531 L 3.03125 -2.144531 L 3.03125 -0.886719 L 3.917969 -0.886719 L 3.917969 -2.144531 L 3.03125 -2.144531 L 3.03125 -3.03125 L 1.257812 -3.03125 L 1.257812 -4.289062 Z M 1.257812 -0.886719 L 1.257812 -1.773438 L 0.371094 -1.773438 L 0.371094 -0.886719 L 1.257812 -0.886719 L 1.257812 0 L 3.03125 0 L 3.03125 -0.886719 Z M 1.257812 -5.175781 L 1.257812 -4.289062 L 3.03125 -4.289062 L 3.03125 -3.402344 L 3.917969 -3.402344 L 3.917969 -4.289062 L 3.03125 -4.289062 L 3.03125 -5.175781 Z M 1.257812 -5.175781 "/></g></g></g><g fill="#00ffff" fill-opacity="1"><g transform="translate(42.628258, 46.387667)"><g><path d="M 0.371094 -5.175781 L 0.371094 0 L 1.257812 0 L 1.257812 -2.144531 L 3.03125 -2.144531 L 3.03125 0 L 3.917969 0 L 3.917969 -5.175781 L 3.03125 -5.175781 L 3.03125 -3.03125 L 1.257812 -3.03125 L 1.257812 -5.175781 Z M 0.371094 -5.175781 "/></g></g></g><g fill="#3b1b72" fill-opacity="1"><g transform="translate(2.014326, 46.318355)"><g><path d="M 1.257812 -4.289062 L 3.03125 -4.289062 L 3.03125 -0.886719 L 3.917969 -0.886719 L 3.917969 -4.289062 L 3.03125 -4.289062 L 3.03125 -5.175781 L 0.371094 -5.175781 L 0.371094 0 L 3.03125 0 L 3.03125 -0.886719 L 1.257812 -0.886719 Z M 1.257812 -4.289062 "/></g></g></g><g fill="#3b1b72" fill-opacity="1"><g transform="translate(7.085875, 46.318355)"><g><path d="M 0.371094 0 L 1.257812 0 L 1.257812 -5.175781 L 0.371094 -5.175781 Z M 0.371094 0 "/></g></g></g><g fill="#3b1b72" fill-opacity="1"><g transform="translate(9.503419, 46.318355)"><g><path d="M 0.371094 -4.289062 L 0.371094 -3.03125 L 1.257812 -3.03125 L 1.257812 -2.144531 L 3.03125 -2.144531 L 3.03125 -0.886719 L 3.917969 -0.886719 L 3.917969 -2.144531 L 3.03125 -2.144531 L 3.03125 -3.03125 L 1.257812 -3.03125 L 1.257812 -4.289062 Z M 1.257812 -0.886719 L 1.257812 -1.773438 L 0.371094 -1.773438 L 0.371094 -0.886719 L 1.257812 -0.886719 L 1.257812 0 L 3.03125 0 L 3.03125 -0.886719 Z M 1.257812 -5.175781 L 1.257812 -4.289062 L 3.03125 -4.289062 L 3.03125 -3.402344 L 3.917969 -3.402344 L 3.917969 -4.289062 L 3.03125 -4.289062 L 3.03125 -5.175781 Z M 1.257812 -5.175781 "/></g></g></g><g fill="#3b1b72" fill-opacity="1"><g transform="translate(14.574968, 46.318355)"><g><path d="M 0.371094 -4.289062 L 0.371094 -0.886719 L 1.257812 -0.886719 L 1.257812 0 L 3.03125 0 L 3.03125 -0.886719 L 1.257812 -0.886719 L 1.257812 -4.289062 Z M 1.257812 -5.175781 L 1.257812 -4.289062 L 3.03125 -4.289062 L 3.03125 -3.402344 L 3.917969 -3.402344 L 3.917969 -4.289062 L 3.03125 -4.289062 L 3.03125 -5.175781 Z M 3.917969 -0.886719 L 3.917969 -1.773438 L 3.03125 -1.773438 L 3.03125 -0.886719 Z M 3.917969 -0.886719 "/></g></g></g><g fill="#3b1b72" fill-opacity="1"><g transform="translate(19.646517, 46.318355)"><g><path d="M 1.257812 -4.289062 L 3.03125 -4.289062 L 3.03125 -0.886719 L 3.917969 -0.886719 L 3.917969 -4.289062 L 3.03125 -4.289062 L 3.03125 -5.175781 L 1.257812 -5.175781 Z M 1.257812 -4.289062 L 0.371094 -4.289062 L 0.371094 -0.886719 L 1.257812 -0.886719 L 1.257812 0 L 3.03125 0 L 3.03125 -0.886719 L 1.257812 -0.886719 Z M 1.257812 -4.289062 "/></g></g></g><g fill="#3b1b72" fill-opacity="1"><g transform="translate(24.718067, 46.318355)"><g><path d="M 1.257812 -4.289062 L 3.03125 -4.289062 L 3.03125 -3.03125 L 3.917969 -3.03125 L 3.917969 -4.289062 L 3.03125 -4.289062 L 3.03125 -5.175781 L 0.371094 -5.175781 L 0.371094 0 L 1.257812 0 L 1.257812 -2.144531 L 3.03125 -2.144531 L 3.03125 0 L 3.917969 0 L 3.917969 -2.144531 L 3.03125 -2.144531 L 3.03125 -3.03125 L 1.257812 -3.03125 Z M 1.257812 -4.289062 "/></g></g></g><g fill="#3b1b72" fill-opacity="1"><g transform="translate(29.789616, 46.318355)"><g><path d="M 1.257812 -4.289062 L 3.03125 -4.289062 L 3.03125 -0.886719 L 3.917969 -0.886719 L 3.917969 -4.289062 L 3.03125 -4.289062 L 3.03125 -5.175781 L 0.371094 -5.175781 L 0.371094 0 L 3.03125 0 L 3.03125 -0.886719 L 1.257812 -0.886719 Z M 1.257812 -4.289062 "/></g></g></g><g fill="#3b1b72" fill-opacity="1"><g transform="translate(34.861165, 46.318355)"><g><path d="M 0.371094 -0.886719 L 0.371094 0 L 1.257812 0 L 1.257812 -0.886719 Z M 0.371094 -0.886719 "/></g></g></g><g fill="#3b1b72" fill-opacity="1"><g transform="translate(37.278709, 46.318355)"><g><path d="M 0.371094 -4.289062 L 0.371094 -3.03125 L 1.257812 -3.03125 L 1.257812 -2.144531 L 3.03125 -2.144531 L 3.03125 -0.886719 L 3.917969 -0.886719 L 3.917969 -2.144531 L 3.03125 -2.144531 L 3.03125 -3.03125 L 1.257812 -3.03125 L 1.257812 -4.289062 Z M 1.257812 -0.886719 L 1.257812 -1.773438 L 0.371094 -1.773438 L 0.371094 -0.886719 L 1.257812 -0.886719 L 1.257812 0 L 3.03125 0 L 3.03125 -0.886719 Z M 1.257812 -5.175781 L 1.257812 -4.289062 L 3.03125 -4.289062 L 3.03125 -3.402344 L 3.917969 -3.402344 L 3.917969 -4.289062 L 3.03125 -4.289062 L 3.03125 -5.175781 Z M 1.257812 -5.175781 "/></g></g></g><g fill="#3b1b72" fill-opacity="1"><g transform="translate(42.35026, 46.318355)"><g><path d="M 0.371094 -5.175781 L 0.371094 0 L 1.257812 0 L 1.257812 -2.144531 L 3.03125 -2.144531 L 3.03125 0 L 3.917969 0 L 3.917969 -5.175781 L 3.03125 -5.175781 L 3.03125 -3.03125 L 1.257812 -3.03125 L 1.257812 -5.175781 Z M 0.371094 -5.175781 "/></g></g></g><g fill="#ff00ff" fill-opacity="1"><g transform="translate(24.354066, 46.279554)"><g/></g></g><g fill="#00ffff" fill-opacity="1"><g transform="translate(25.089416, 46.462898)"><g/></g></g><g fill="#3b1b72" fill-opacity="1"><g transform="translate(24.721741, 46.371226)"><g/></g></g></svg>