<svg xmlns="http://www.w3.org/2000/svg" xmlns:xlink="http://www.w3.org/1999/xlink" width="64" zoomAndPan="magnify" viewBox="0 0 48 48" height="64" preserveAspectRatio="xMidYMid meet" version="1.0"><defs><clipPath id="id1"><path d="M 14 1.132812 L 34 1.132812 L 34 18 L 14 18 Z M 14 1.132812 " clip-rule="nonzero"/></clipPath><clipPath id="id2"><path d="M 3.804688 4 L 25 4 L 25 45.949219 L 3.804688 45.949219 Z M 3.804688 4 " clip-rule="nonzero"/></clipPath><clipPath id="id3"><path d="M 24 4 L 44.210938 4 L 44.210938 45.949219 L 24 45.949219 Z M 24 4 " clip-rule="nonzero"/></clipPath></defs><path fill="#9155fd" d="M 29.089844 25.695312 L 25.566406 27.65625 C 29.480469 28.570312 29.089844 25.695312 29.089844 25.695312 " fill-opacity="1" fill-rule="nonzero"/><path fill="#9155fd" d="M 22.457031 27.65625 L 18.933594 25.695312 C 18.933594 25.695312 18.542969 28.570312 22.457031 27.65625 " fill-opacity="1" fill-rule="nonzero"/><g clip-path="url(#id1)"><path fill="#9155fd" d="M 18.039062 3.441406 L 18.1875 3.496094 C 19.710938 5.304688 21.066406 8.390625 20.488281 13.542969 C 20.488281 13.542969 20.464844 13.9375 20.484375 14.566406 C 20.609375 19.128906 27.414062 19.128906 27.539062 14.566406 C 27.558594 13.9375 27.535156 13.542969 27.535156 13.542969 C 26.949219 8.339844 28.339844 5.242188 29.882812 3.441406 C 29.882812 3.441406 31.066406 1.9375 33.148438 1.132812 C 33.148438 1.132812 30.066406 1.285156 27.847656 2.941406 C 26.605469 2.699219 25.324219 2.574219 24.011719 2.574219 C 22.671875 2.574219 21.363281 2.707031 20.097656 2.957031 C 17.875 1.285156 14.769531 1.132812 14.769531 1.132812 C 16.855469 1.9375 18.039062 3.441406 18.039062 3.441406 " fill-opacity="1" fill-rule="nonzero"/></g><g clip-path="url(#id2)"><path fill="#9155fd" d="M 20.425781 41.460938 C 20.425781 41.460938 20.339844 41.4375 20.179688 41.394531 C 20.019531 41.351562 19.789062 41.292969 19.488281 41.207031 C 19.332031 41.152344 19.160156 41.09375 18.972656 41.027344 C 18.878906 40.992188 18.78125 40.957031 18.679688 40.921875 C 18.582031 40.882812 18.484375 40.835938 18.378906 40.789062 C 17.964844 40.613281 17.511719 40.371094 17.046875 40.058594 C 16.816406 39.894531 16.574219 39.738281 16.351562 39.527344 C 16.238281 39.425781 16.121094 39.328125 16.007812 39.21875 C 15.902344 39.105469 15.792969 38.992188 15.683594 38.871094 C 15.265625 38.390625 14.871094 37.835938 14.570312 37.21875 C 14.261719 36.605469 14.003906 35.945312 13.8125 35.265625 C 13.613281 34.585938 13.453125 33.890625 13.3125 33.199219 C 13.179688 32.503906 13.042969 31.8125 12.910156 31.132812 C 12.773438 30.457031 12.625 29.792969 12.453125 29.164062 C 12.410156 29.003906 12.359375 28.851562 12.3125 28.695312 C 12.289062 28.621094 12.265625 28.542969 12.242188 28.46875 C 12.214844 28.394531 12.1875 28.320312 12.160156 28.246094 C 12.109375 28.097656 12.058594 27.949219 12.003906 27.804688 C 11.941406 27.664062 11.882812 27.523438 11.824219 27.386719 C 11.792969 27.320312 11.769531 27.25 11.734375 27.183594 C 11.703125 27.117188 11.667969 27.050781 11.636719 26.988281 C 11.570312 26.859375 11.503906 26.730469 11.441406 26.605469 C 11.367188 26.484375 11.296875 26.367188 11.226562 26.25 C 11.15625 26.132812 11.089844 26.015625 11.007812 25.914062 C 10.851562 25.703125 10.71875 25.492188 10.554688 25.316406 C 10.394531 25.140625 10.257812 24.957031 10.09375 24.816406 C 9.941406 24.671875 9.800781 24.527344 9.660156 24.40625 C 9.515625 24.292969 9.382812 24.1875 9.261719 24.089844 C 9.144531 23.992188 9.027344 23.917969 8.925781 23.855469 C 8.828125 23.789062 8.742188 23.734375 8.671875 23.6875 C 8.535156 23.597656 8.460938 23.550781 8.460938 23.550781 C 8.460938 23.550781 8.535156 23.59375 8.679688 23.679688 C 8.75 23.71875 8.835938 23.773438 8.941406 23.832031 C 9.042969 23.894531 9.164062 23.960938 9.285156 24.054688 C 9.414062 24.144531 9.550781 24.246094 9.703125 24.355469 C 9.851562 24.464844 9.996094 24.605469 10.160156 24.746094 C 10.332031 24.882812 10.480469 25.058594 10.648438 25.230469 C 10.824219 25.402344 10.972656 25.613281 11.140625 25.816406 C 11.226562 25.917969 11.300781 26.035156 11.378906 26.148438 C 11.457031 26.265625 11.535156 26.382812 11.613281 26.503906 C 11.6875 26.628906 11.757812 26.753906 11.832031 26.882812 C 11.867188 26.949219 11.90625 27.015625 11.941406 27.078125 C 11.980469 27.144531 12.011719 27.214844 12.042969 27.285156 C 12.109375 27.421875 12.175781 27.5625 12.246094 27.703125 C 12.308594 27.847656 12.367188 27.996094 12.429688 28.144531 C 12.460938 28.21875 12.492188 28.292969 12.519531 28.367188 C 12.546875 28.445312 12.574219 28.519531 12.601562 28.597656 C 12.65625 28.753906 12.714844 28.90625 12.769531 29.066406 C 12.976562 29.699219 13.15625 30.363281 13.328125 31.039062 C 13.492188 31.710938 13.65625 32.398438 13.824219 33.082031 C 13.992188 33.761719 14.179688 34.433594 14.402344 35.078125 C 14.617188 35.722656 14.890625 36.328125 15.199219 36.878906 C 15.503906 37.4375 15.878906 37.917969 16.273438 38.324219 C 16.375 38.425781 16.472656 38.523438 16.574219 38.621094 C 16.675781 38.710938 16.785156 38.792969 16.890625 38.878906 C 17.089844 39.054688 17.316406 39.183594 17.523438 39.320312 C 17.949219 39.574219 18.359375 39.769531 18.742188 39.914062 C 18.835938 39.949219 18.925781 39.988281 19.015625 40.019531 C 19.105469 40.046875 19.191406 40.074219 19.273438 40.097656 C 19.441406 40.148438 19.589844 40.195312 19.726562 40.234375 C 20.023438 40.304688 20.265625 40.355469 20.425781 40.390625 C 20.585938 40.425781 20.671875 40.445312 20.671875 40.445312 C 20.679688 40.445312 20.6875 40.445312 20.695312 40.449219 C 20.972656 40.523438 21.140625 40.808594 21.066406 41.089844 C 20.992188 41.367188 20.703125 41.535156 20.425781 41.460938 Z M 21.253906 42.816406 L 21.234375 42.8125 C 21.019531 42.476562 20.804688 42.117188 20.605469 41.734375 C 20.941406 41.714844 21.230469 41.484375 21.316406 41.15625 C 21.429688 40.738281 21.179688 40.308594 20.761719 40.195312 C 20.75 40.191406 20.734375 40.191406 20.726562 40.1875 L 20.480469 40.136719 C 20.425781 40.121094 20.363281 40.109375 20.289062 40.09375 C 20.167969 40.066406 20.023438 40.035156 19.859375 40 C 19.546875 39.0625 19.339844 38.039062 19.3125 36.933594 L 21.007812 38.238281 C 21.007812 38.238281 20.226562 31.664062 16.703125 29.398438 C 16.703125 29.398438 11.742188 25.957031 12.003906 22.296875 C 12.003906 22.296875 14.089844 24.78125 16.179688 24.652344 C 16.179688 24.652344 11.589844 21.382812 11.992188 17.988281 C 12.328125 15.140625 16.78125 9.632812 15.988281 4.234375 C 8.828125 7.339844 3.816406 14.480469 3.816406 22.792969 C 3.816406 31.972656 9.929688 39.722656 18.304688 42.1875 C 21.054688 44.703125 23.816406 45.863281 24.011719 45.941406 C 23.160156 45.453125 21.253906 42.816406 21.253906 42.816406 " fill-opacity="1" fill-rule="nonzero"/></g><g clip-path="url(#id3)"><path fill="#393536" d="M 39.105469 23.855469 C 39.007812 23.917969 38.890625 23.992188 38.773438 24.089844 C 38.652344 24.1875 38.519531 24.292969 38.375 24.40625 C 38.230469 24.527344 38.09375 24.671875 37.9375 24.816406 C 37.777344 24.957031 37.640625 25.140625 37.480469 25.316406 C 37.316406 25.492188 37.179688 25.703125 37.023438 25.914062 C 36.945312 26.015625 36.875 26.132812 36.808594 26.25 C 36.738281 26.367188 36.664062 26.484375 36.59375 26.605469 C 36.527344 26.730469 36.464844 26.859375 36.398438 26.988281 C 36.363281 27.050781 36.332031 27.117188 36.296875 27.183594 C 36.265625 27.25 36.238281 27.320312 36.207031 27.386719 C 36.148438 27.523438 36.089844 27.664062 36.03125 27.804688 C 35.976562 27.949219 35.925781 28.097656 35.871094 28.246094 C 35.84375 28.320312 35.816406 28.394531 35.792969 28.46875 C 35.769531 28.542969 35.746094 28.621094 35.722656 28.695312 C 35.675781 28.851562 35.625 29.003906 35.582031 29.164062 C 35.40625 29.792969 35.257812 30.457031 35.121094 31.132812 C 34.988281 31.8125 34.855469 32.503906 34.71875 33.199219 C 34.578125 33.890625 34.417969 34.585938 34.222656 35.265625 C 34.03125 35.945312 33.769531 36.605469 33.464844 37.21875 C 33.164062 37.835938 32.769531 38.390625 32.347656 38.871094 C 32.238281 38.992188 32.128906 39.105469 32.023438 39.21875 C 31.914062 39.328125 31.792969 39.425781 31.679688 39.527344 C 31.460938 39.738281 31.214844 39.894531 30.988281 40.058594 C 30.523438 40.371094 30.066406 40.613281 29.652344 40.789062 C 29.550781 40.835938 29.453125 40.882812 29.351562 40.921875 C 29.25 40.957031 29.15625 40.992188 29.0625 41.027344 C 28.875 41.09375 28.703125 41.152344 28.546875 41.207031 C 28.246094 41.292969 28.011719 41.351562 27.851562 41.394531 C 27.695312 41.4375 27.609375 41.460938 27.609375 41.460938 C 27.328125 41.535156 27.042969 41.367188 26.96875 41.089844 C 26.894531 40.808594 27.058594 40.523438 27.339844 40.449219 C 27.347656 40.445312 27.355469 40.445312 27.363281 40.445312 C 27.363281 40.445312 27.449219 40.425781 27.609375 40.390625 C 27.769531 40.355469 28.011719 40.304688 28.304688 40.234375 C 28.441406 40.195312 28.59375 40.148438 28.757812 40.097656 C 28.839844 40.074219 28.925781 40.046875 29.015625 40.019531 C 29.105469 39.988281 29.195312 39.949219 29.289062 39.914062 C 29.671875 39.769531 30.085938 39.574219 30.511719 39.320312 C 30.714844 39.183594 30.941406 39.054688 31.144531 38.878906 C 31.246094 38.792969 31.355469 38.710938 31.460938 38.621094 C 31.558594 38.523438 31.660156 38.425781 31.761719 38.324219 C 32.152344 37.917969 32.53125 37.4375 32.835938 36.878906 C 33.144531 36.328125 33.417969 35.722656 33.632812 35.078125 C 33.851562 34.433594 34.039062 33.761719 34.210938 33.082031 C 34.375 32.398438 34.542969 31.710938 34.707031 31.039062 C 34.878906 30.363281 35.058594 29.699219 35.265625 29.066406 C 35.316406 28.90625 35.375 28.753906 35.429688 28.597656 C 35.457031 28.519531 35.484375 28.445312 35.511719 28.367188 C 35.542969 28.292969 35.574219 28.21875 35.605469 28.144531 C 35.667969 27.996094 35.726562 27.847656 35.789062 27.703125 C 35.855469 27.5625 35.921875 27.421875 35.988281 27.285156 C 36.023438 27.214844 36.054688 27.144531 36.089844 27.078125 C 36.128906 27.015625 36.164062 26.949219 36.203125 26.882812 C 36.273438 26.753906 36.347656 26.628906 36.417969 26.503906 C 36.5 26.382812 36.578125 26.265625 36.65625 26.148438 C 36.730469 26.035156 36.804688 25.917969 36.890625 25.816406 C 37.0625 25.613281 37.207031 25.402344 37.382812 25.230469 C 37.554688 25.058594 37.703125 24.882812 37.871094 24.746094 C 38.035156 24.605469 38.179688 24.464844 38.332031 24.355469 C 38.480469 24.246094 38.621094 24.144531 38.746094 24.054688 C 38.867188 23.960938 38.988281 23.894531 39.09375 23.832031 C 39.195312 23.773438 39.285156 23.71875 39.355469 23.679688 C 39.496094 23.59375 39.574219 23.550781 39.574219 23.550781 C 39.574219 23.550781 39.5 23.597656 39.359375 23.6875 C 39.292969 23.734375 39.207031 23.789062 39.105469 23.855469 Z M 32.035156 4.234375 C 31.242188 9.632812 35.695312 15.140625 36.03125 17.988281 C 36.433594 21.382812 31.84375 24.652344 31.84375 24.652344 C 33.933594 24.78125 36.019531 22.296875 36.019531 22.296875 C 36.28125 25.957031 31.320312 29.398438 31.320312 29.398438 C 27.796875 31.664062 27.015625 38.238281 27.015625 38.238281 L 28.710938 36.933594 C 28.683594 38.039062 28.476562 39.066406 28.160156 40 C 28.003906 40.039062 27.863281 40.066406 27.742188 40.09375 C 27.671875 40.109375 27.605469 40.121094 27.554688 40.132812 L 27.308594 40.1875 C 27.296875 40.191406 27.285156 40.191406 27.269531 40.195312 C 26.855469 40.308594 26.605469 40.738281 26.714844 41.15625 C 26.800781 41.480469 27.089844 41.710938 27.417969 41.734375 C 27.21875 42.117188 27.003906 42.480469 26.78125 42.816406 C 26.78125 42.816406 24.867188 45.464844 24.019531 45.945312 C 24.015625 45.941406 24.015625 45.941406 24.011719 45.941406 C 24.015625 45.941406 24.015625 45.945312 24.015625 45.945312 C 24.015625 45.945312 24.015625 45.945312 24.011719 45.949219 C 24.011719 45.949219 24.015625 45.945312 24.019531 45.945312 C 24.023438 45.945312 24.027344 45.949219 24.027344 45.949219 C 24.023438 45.945312 24.023438 45.945312 24.019531 45.945312 C 24.183594 45.878906 26.96875 44.71875 29.738281 42.179688 C 38.105469 39.710938 44.210938 31.964844 44.210938 22.792969 C 44.210938 14.480469 39.199219 7.339844 32.035156 4.234375 " fill-opacity="1" fill-rule="nonzero"/></g></svg>